<?xml version="1.0" ?><!DOCTYPE svg  PUBLIC '-//W3C//DTD SVG 1.1//EN'  'http://www.w3.org/Graphics/SVG/1.1/DTD/svg11.dtd'><svg enable-background="new 0 0 300 300" height="300px" id="Layer_1" version="1.1" viewBox="0 0 300 300" width="300px" xml:space="preserve" xmlns="http://www.w3.org/2000/svg" xmlns:xlink="http://www.w3.org/1999/xlink"><path d="M285.425,34.39H16.183c-6.218,0-11.258,4.922-11.258,10.992v153.895h291.757V45.382  C296.683,39.312,291.641,34.39,285.425,34.39z" fill="#3E444E"/><path d="M4.925,199.276v16.03c0,6.07,5.04,10.992,11.258,10.992h269.242c6.216,0,11.258-4.922,11.258-10.992v-16.03  H4.925z" fill="#DBDFE2"/><path d="M187.021,229.53c-0.076-1.362-0.122-2.469-0.15-3.231h-72.135c-0.039,1.044-0.112,2.736-0.246,4.837  l-4.901,26.769H99.429v6.412h102.75v-6.412h-9.961L187.021,229.53z" fill="#D0D1D1"/><g><rect fill="#DCDFE2" height="139.848" width="266.416" x="17.596" y="47.52"/><circle cx="150.804" cy="41.718" fill="#DCDFE2" r="3.053"/></g><circle cx="150.804" cy="212.788" fill="#A7A9AC" r="7.363"/></svg>