<?xml version="1.0" ?><!DOCTYPE svg  PUBLIC '-//W3C//DTD SVG 1.1//EN'  'http://www.w3.org/Graphics/SVG/1.1/DTD/svg11.dtd'><svg height="512px" style="shape-rendering:geometricPrecision; text-rendering:geometricPrecision; image-rendering:optimizeQuality; fill-rule:evenodd; clip-rule:evenodd" viewBox="0 0 512 512" width="512px" xml:space="preserve" xmlns="http://www.w3.org/2000/svg" xmlns:xlink="http://www.w3.org/1999/xlink"><defs><style type="text/css">
   <![CDATA[
    .str0 {stroke:black;stroke-width:0.125102}
    .fil0 {fill:none}
    .fil6 {fill:#1A2B4A}
    .fil11 {fill:#212121}
    .fil9 {fill:#333D49}
    .fil8 {fill:#373435}
    .fil5 {fill:#424141}
    .fil7 {fill:#424242}
    .fil3 {fill:#B2B2B2}
    .fil15 {fill:#BEBEBE}
    .fil1 {fill:#CCCCCC}
    .fil12 {fill:#D4BDAE}
    .fil2 {fill:#E6E6E6}
    .fil13 {fill:whitesmoke}
    .fil10 {fill:#F8F8F8}
    .fil4 {fill:#FEFEFE}
    .fil14 {fill:#E6E6E6;fill-rule:nonzero}
   ]]>
  </style></defs><g id="Layer_x0020_1"><rect class="fil0" height="512" width="512" y="0.000377953"/><path class="fil1" d="M451.241 378.837c0,5.86394 -4.79169,10.6647 -10.6473,10.6647l-158.372 -0.000377953c-5.85562,0 -10.6473,-4.80038 -10.6473,-10.6643l0 -245.704c0,-5.86507 4.79169,-10.6643 10.6473,-10.6643l158.372 0c5.85562,0 10.6473,4.79925 10.6473,10.6643l0 245.704z"/><path class="fil2" d="M450.013 378.837l0 -245.704c0,-5.18589 -4.24139,-9.43408 -9.41859,-9.43408l-158.372 0c-5.17758,0 -9.41859,4.24819 -9.41859,9.43408l0 245.704c0,5.18551 4.24177,9.43408 9.41859,9.43408l158.372 0.000377953c5.1772,0 9.41859,-4.24895 9.41859,-9.43446z"/><path class="fil3" d="M271.575 156.945l0 -11.1678 0.443339 0c0.721512,0 1.31036,0.589985 1.31036,1.31263l0 8.54249c0,0.722646 -0.589229,1.31263 -1.31036,1.31263l-0.443339 0z"/><path class="fil3" d="M280.959 122.545c0.414236,-0.0495118 0.835654,-0.0759685 1.26312,-0.0759685l9.88649 0 0 0.716221c0,0.722646 -0.588851,1.31263 -1.31036,1.31263l-8.52851 0c-0.721512,0 -1.31036,-0.589985 -1.31036,-1.31263l0 -0.640252 -0.000377953 0z"/><path class="fil1" d="M271.241 146.105l0.319748 0c0.792189,0 1.44,0.647811 1.44,1.44l0 7.63125c0,0.792189 -0.648189,1.44 -1.44,1.44l-0.319748 0 0 -10.5112z"/><g id="_37289872"><path class="fil4" d="M281.014 134.644c0.38589,-1.44302 1.8652,-2.29833 3.30595,-1.91169 1.44113,0.386646 2.29455,1.86784 1.90866,3.31087 -0.386268,1.44378 -1.86482,2.29833 -3.30595,1.91169 -1.44113,-0.386268 -2.29417,-1.86784 -1.90866,-3.31087z" id="_37290688"/><g><g><circle class="fil5" id="_37290976" r="1.58211" transform="matrix(-1.95649 -0.525091 0.524241 -1.95967 283.621 135.344)"/><circle class="fil6" id="_37290568" r="1.58211" transform="matrix(-1.08313 -0.290695 0.290224 -1.08489 283.621 135.344)"/></g><g><circle class="fil6" id="_37290376" r="1.58211" transform="matrix(-1.16905 -0.313756 0.313247 -1.17095 283.621 135.344)"/><circle class="fil2" id="_37290304" r="1.58211" transform="matrix(-0.241557 -0.0648301 0.064725 -0.241949 284.314 134.329)"/><circle class="fil2" id="_37290664" r="1.58211" transform="matrix(-0.137536 -0.0369124 0.0368526 -0.137759 283.244 136.283)"/><circle class="fil2" id="_37289728" r="1.58211" transform="matrix(-0.0756447 -0.0203018 0.0202689 -0.0757675 282.87 136.789)"/></g></g><circle class="fil0 str0" id="_37289968" r="0.311433" transform="matrix(-8.82864 -2.36947 2.36563 -8.84297 283.62 135.343)"/></g><circle class="fil7" r="0.825071" transform="matrix(-0.659296 -0.176945 0.176658 -0.660366 290.898 135.146)"/><path class="fil1" d="M291.781 122.407l0 0.322772c0,0.792189 -0.647811,1.44 -1.44,1.44l-7.61462 0c-0.792189,0 -1.44,-0.647811 -1.44,-1.44l0 -0.322772 10.4942 0 0.000377953 0z"/><path class="fil7" d="M438.769 122.469c0.501922,0.309543 0.827339,0.805418 0.827339,1.36403 0,0.938079 -0.916914,1.69852 -2.04775,1.69852 -1.13084,0 -2.04775,-0.760441 -2.04775,-1.69852 0,-0.558614 0.325417,-1.05449 0.827339,-1.36403l2.44044 0 0.000377953 0z"/><g id="_37291072"><path class="fil8" d="M438.721 122.633l-2.34558 0c-0.411969,0.267969 -0.710929,0.693544 -0.710929,1.2 0,0.144756 0.0249449,0.287244 0.0729449,0.423685 0.258898,0.732851 1.07565,1.1108 1.81077,1.1108 0.735118,0 1.55187,-0.377953 1.81077,-1.1108 0.048378,-0.136441 0.0729449,-0.278929 0.0729449,-0.423685 0,-0.506457 -0.299339,-0.932032 -0.710929,-1.2z" id="_37290016"/></g><path class="fil9" d="M158.093 379.128c0,4.08605 -3.30595,7.39238 -7.392,7.39238 -4.08605,-0.000377953 -7.392,-3.30633 -7.392,-7.39238 0,-4.08605 3.30595,-7.392 7.392,-7.392 4.08605,0 7.392,3.30633 7.392,7.392z"/><path class="fil1" d="M240.701 378.88c0,5.86545 -4.80038,10.6673 -10.667,10.6673l-158.666 -0.000377953c-5.86659,0 -10.667,-4.80151 -10.667,-10.667l0 -245.761c0,-5.86659 4.80038,-10.667 10.667,-10.667l158.666 0c5.86659,0 10.667,4.80038 10.667,10.667l0 245.761z"/><path class="fil10" d="M239.471 378.88l0 -245.761c0,-5.18703 -4.24895,-9.43635 -9.43635,-9.43635l-158.666 0c-5.18703,0 -9.43597,4.24895 -9.43597,9.43635l0 245.761c0,5.18665 4.2497,9.43597 9.43597,9.43597l158.666 0.000377953c5.18665,0 9.43635,-4.25008 9.43635,-9.43673l0 0.000377953z"/><polygon class="fil11" points="232.753,366.953 68.6491,366.953 68.6491,143.256 232.753,143.256 "/><g id="_275920360"><path class="fil4" d="M151.996 134.05c0,0.715087 -0.579024,1.29449 -1.29449,1.29449 -0.715465,0 -1.29411,-0.579024 -1.29411,-1.29411 0,-0.715843 0.579024,-1.29449 1.29411,-1.29449 0.715465,-0.000377953 1.29411,0.579024 1.29449,1.29411z" id="_275815528"/><g><g><circle class="fil5" cx="150.701" cy="134.05" id="_275920768" r="1.53638"/><circle class="fil6" cx="150.701" cy="134.05" id="_275921056" r="0.850394"/></g><g><circle class="fil6" cx="150.701" cy="134.05" id="_275921032" r="0.918048"/><circle class="fil2" cx="150.506" cy="134.606" id="_275920720" r="0.189732"/><circle class="fil2" cx="150.76" cy="133.569" id="_275921128" r="0.108095"/><circle class="fil2" cx="150.87" cy="133.289" id="_275920096" r="0.0593386"/></g></g><circle class="fil0 str0" cx="150.701" cy="134.05" id="_275920624" r="1.36554"/></g><g id="_275920504"><circle class="fil12" cx="150.701" cy="379.128" id="_275920312" r="8.51339"/><g><path class="fil13" d="M150.701 371.606c4.15484,0 7.52315,3.36832 7.52315,7.52315 0,4.15484 -3.36832,7.52315 -7.52315,7.52315 -4.15484,0 -7.52315,-3.36832 -7.52315,-7.52315 0,-4.15484 3.36832,-7.52315 7.52315,-7.52315z" id="_275920240"/><path class="fil14" d="M158.266 379.128l-0.0820158 0 0 0 -0.00982678 -0.385134 -0.0291024 -0.379843 -0.0476221 -0.374551 -0.0657638 -0.368504 -0.0835276 -0.362079 -0.100913 -0.354898 -0.117543 -0.347717 -0.133795 -0.33978 -0.150047 -0.331465 -0.165165 -0.322772 -0.180284 -0.313323 -0.194646 -0.303496 -0.20863 -0.293291 -0.222236 -0.282709 -0.235087 -0.27137 -0.247559 -0.260032 -0.260032 -0.247559 -0.27137 -0.235087 -0.282709 -0.222236 -0.293291 -0.20863 -0.303496 -0.194646 -0.313323 -0.180284 -0.322772 -0.165165 -0.331465 -0.150047 -0.33978 -0.133795 -0.347717 -0.117543 -0.354898 -0.100913 -0.362079 -0.0835276 -0.368504 -0.0657638 -0.374551 -0.0476221 -0.379843 -0.0291024 -0.385134 -0.00982678 0 -0.0820158 0.389292 0.00982678 0.384 0.0291024 0.378709 0.048 0.372284 0.0665197 0.365858 0.0842835 0.359055 0.102047 0.351496 0.119055 0.343559 0.135307 0.334866 0.151559 0.326173 0.167055 0.316725 0.182173 0.306898 0.196913 0.296693 0.210898 0.285732 0.224504 0.274394 0.237732 0.262677 0.250583 0.250583 0.262677 0.237732 0.274394 0.224504 0.285732 0.210898 0.296693 0.196913 0.306898 0.182173 0.316725 0.167055 0.326173 0.151559 0.334866 0.135307 0.343559 0.119055 0.351496 0.102047 0.359055 0.0842835 0.365858 0.0665197 0.372284 0.048 0.378709 0.0291024 0.384 0.00982678 0.389292 0 0 0.000755906 0.000755906zm-7.56435 7.56435l0 -0.0820158 0 0 0.385134 -0.00982678 0.379843 -0.0291024 0.374551 -0.0476221 0.368504 -0.0657638 0.362079 -0.0835276 0.354898 -0.100913 0.347717 -0.117543 0.33978 -0.133795 0.331465 -0.150047 0.322772 -0.165165 0.313323 -0.180284 0.303496 -0.194646 0.293291 -0.20863 0.282709 -0.222236 0.27137 -0.235087 0.260032 -0.247559 0.247559 -0.260032 0.235087 -0.27137 0.222236 -0.282709 0.20863 -0.293291 0.194646 -0.303496 0.180284 -0.313323 0.165165 -0.322772 0.150047 -0.331465 0.133795 -0.33978 0.117543 -0.347717 0.100913 -0.354898 0.0835276 -0.362079 0.0657638 -0.368504 0.0476221 -0.374551 0.0291024 -0.379843 0.00982678 -0.385134 0.0820158 0 -0.00982678 0.389292 -0.0291024 0.384 -0.048 0.378709 -0.0665197 0.372284 -0.0842835 0.365858 -0.102047 0.359055 -0.119055 0.351496 -0.135307 0.343559 -0.151559 0.334866 -0.167055 0.326173 -0.182173 0.316725 -0.196913 0.306898 -0.210898 0.296693 -0.224504 0.285732 -0.237732 0.274394 -0.250583 0.262677 -0.262677 0.250583 -0.274394 0.237732 -0.285732 0.224504 -0.296693 0.210898 -0.306898 0.196913 -0.316725 0.182173 -0.326173 0.167055 -0.334866 0.151559 -0.343559 0.135307 -0.351496 0.119055 -0.359055 0.102047 -0.365858 0.0842835 -0.372284 0.0665197 -0.378709 0.048 -0.384 0.0291024 -0.389292 0.00982678 0 0 -0.000755906 0.000755906zm-7.56435 -7.56435l0.0820158 0 0 0 0.00982678 0.385134 0.0291024 0.379843 0.0476221 0.374551 0.0657638 0.368504 0.0835276 0.362079 0.100913 0.354898 0.117543 0.347717 0.133795 0.33978 0.150047 0.331465 0.165165 0.322772 0.180284 0.313323 0.194646 0.303496 0.20863 0.293291 0.221858 0.282709 0.235087 0.27137 0.247559 0.260032 0.260032 0.247559 0.27137 0.235087 0.282709 0.222236 0.293291 0.20863 0.303496 0.194646 0.313323 0.180284 0.322772 0.165165 0.331465 0.150047 0.33978 0.133795 0.347717 0.117543 0.354898 0.100913 0.362079 0.0835276 0.368504 0.0657638 0.374551 0.0476221 0.379843 0.0291024 0.385134 0.00982678 0 0.0820158 -0.389292 -0.00982678 -0.384 -0.0291024 -0.378709 -0.048 -0.372284 -0.0665197 -0.365858 -0.0842835 -0.359055 -0.102047 -0.351496 -0.119055 -0.343559 -0.135307 -0.334866 -0.151559 -0.326173 -0.167055 -0.316725 -0.182173 -0.306898 -0.196913 -0.296693 -0.210898 -0.285732 -0.224504 -0.274394 -0.237732 -0.262677 -0.250583 -0.250583 -0.262677 -0.237732 -0.274394 -0.224504 -0.285732 -0.210898 -0.296693 -0.196536 -0.306898 -0.182173 -0.316725 -0.167055 -0.326173 -0.151559 -0.334866 -0.135307 -0.343559 -0.119055 -0.351496 -0.102047 -0.359055 -0.0842835 -0.365858 -0.0665197 -0.372284 -0.048 -0.378709 -0.0291024 -0.384 -0.00982678 -0.389292 0 0 -0.000755906 -0.000755906zm7.56435 -7.56435l0 0.0820158 0 0 -0.385134 0.00982678 -0.379843 0.0291024 -0.374551 0.0476221 -0.368504 0.0657638 -0.362079 0.0835276 -0.354898 0.100913 -0.347717 0.117543 -0.33978 0.133795 -0.331465 0.150047 -0.322772 0.165165 -0.313323 0.180284 -0.303496 0.194646 -0.293291 0.20863 -0.282709 0.222236 -0.27137 0.235087 -0.260032 0.247559 -0.247559 0.260032 -0.235087 0.27137 -0.221858 0.282709 -0.20863 0.293291 -0.194646 0.303496 -0.180284 0.313323 -0.165165 0.322772 -0.150047 0.331465 -0.133795 0.33978 -0.117543 0.347717 -0.100913 0.354898 -0.0835276 0.362079 -0.0657638 0.368504 -0.0476221 0.374551 -0.0291024 0.379843 -0.00982678 0.385134 -0.0820158 0 0.00982678 -0.389292 0.0291024 -0.384 0.048 -0.378709 0.0665197 -0.372284 0.0842835 -0.365858 0.102047 -0.359055 0.119055 -0.351496 0.135307 -0.343559 0.151559 -0.334866 0.167055 -0.326173 0.182173 -0.316725 0.196536 -0.306898 0.210898 -0.296693 0.224504 -0.285732 0.237732 -0.274394 0.250583 -0.262677 0.262677 -0.250583 0.274394 -0.237732 0.285732 -0.224504 0.296693 -0.210898 0.306898 -0.196913 0.316725 -0.182173 0.326173 -0.167055 0.334866 -0.151559 0.343559 -0.135307 0.351496 -0.119055 0.359055 -0.102047 0.365858 -0.0842835 0.372284 -0.0665197 0.378709 -0.048 0.384 -0.0291024 0.389292 -0.00982678 0 0 0.000755906 -0.000755906z" id="_2759202401"/></g></g><circle class="fil15" cx="146.306" cy="134.301" r="0.563906"/></g></svg>