<?xml version="1.0" ?><svg style="enable-background:new 0 0 64 64;" version="1.1" viewBox="0 0 64 64" xml:space="preserve" xmlns="http://www.w3.org/2000/svg" xmlns:xlink="http://www.w3.org/1999/xlink"><g id="rice_cooker"/><g id="kettle"/><g id="cutting_board"/><g id="mug"/><g id="scale"/><g id="rolling_pin"/><g id="spatula"/><g id="ricebowl"/><g id="bowl"/><g id="knife"/><g id="oven"/><g id="frying_pan"/><g id="buthcer_knife"/><g id="soup_spoon"/><g id="mixer"><g><g><path d="M56.5079,16.4227c0-2.655,0.0449-8.4593,0.0449-11.1385     C56.5528,3.4761,54.7621,2,52.9541,2H29.0115c-1.808,0-2.9418,1.5107-3.2875,3.2842l-1.3344,6.8726H11.713     c-2.3473,0-4.2658,1.9186-4.2658,4.266c0,5.2478,0,10.4955,0,15.7433c0,2.3473,1.9186,4.266,4.2658,4.266h1.006h9.0848H52.242     c2.3438,0,4.2658-1.9221,4.2658-4.266V16.4227z M51.4469,11.6209H30.4841c-0.4356,0-0.8573-0.363-0.7916-0.7951l0.5773-3.8131     c0.0657-0.4321,0.3595-0.7917,0.7951-0.7917h20.382c0.4356,0,0.7951,0.3561,0.7951,0.7917v3.8131     C52.242,11.2614,51.8825,11.6209,51.4469,11.6209L51.4469,11.6209z" style="fill-rule:evenodd;clip-rule:evenodd;fill:#FA3C5F;"/></g><g><path d="M21.8038,36.4319H12.719v3.5054     c0,0.6119,0.3699,1.1132,0.8227,1.1132h3.5848h0.2109h3.6401c0.4529,0,0.8262-0.5013,0.8262-1.1132V36.4319z" style="fill-rule:evenodd;clip-rule:evenodd;fill:#E0E0E0;"/></g><g><path d="M50.9491,16.4227v15.7433     c0,2.3404-1.9151,4.259-4.2555,4.266h0.0035h5.5449c2.3438,0,4.2658-1.9221,4.2658-4.266V16.4227     c0-2.655,0.0449-8.4593,0.0449-11.1385C56.5528,3.4761,54.7621,2,52.9541,2H47.392c1.808,0,3.6021,1.4761,3.6021,3.2842     c0,0.28,0,0.5946-0.0035,0.9369h0.4563c0.4356,0,0.7951,0.3561,0.7951,0.7917v3.8131c0,0.4356-0.3595,0.7951-0.7951,0.7951     h-0.4805C50.956,13.4738,50.9491,15.2542,50.9491,16.4227L50.9491,16.4227z" style="fill-rule:evenodd;clip-rule:evenodd;fill:#F51841;"/></g><g><path d="M17.9009,41.0505h3.0767     c0.4529,0,0.8262-0.5013,0.8262-1.1132v-3.5054h-3.0767v3.5054C18.7271,40.5492,18.3538,41.0505,17.9009,41.0505L17.9009,41.0505     z" style="fill-rule:evenodd;clip-rule:evenodd;fill:#C9C7C7;"/></g><g><path d="M51.4468,5.2212H31.0649c-0.9038,0-1.6372,0.6753-1.7837,1.6416l-0.5776,3.813     c-0.0703,0.4634,0.0703,0.9395,0.3857,1.3062c0.3442,0.4004,0.8657,0.6392,1.395,0.6392h20.9624     c0.9902,0,1.7954-0.8052,1.7954-1.7954v-3.813C53.2422,6.0249,52.437,5.2212,51.4468,5.2212z M51.2422,10.6211H30.7354     l0.519-3.3999h19.9878V10.6211z"/><path d="M52.9541,1H29.0117c-2.1089,0-3.7847,1.6064-4.269,4.0938l-1.1777,6.063H11.7129c-2.9033,0-5.2656,2.3623-5.2656,5.2661     V32.166c0,2.9038,2.3623,5.2661,5.2656,5.2661h0.0063v2.5054c0,1.1846,0.8008,2.1128,1.8228,2.1128h2.5845v4.9731h-1.1914     c-2.2559,0-4.0908,1.8335-4.0908,4.0869v7.8027c0,2.2534,1.835,4.0869,4.0908,4.0869h4.3867     c2.2554,0,4.0903-1.8335,4.0903-4.0869v-7.8027c0-2.2534-1.835-4.0869-4.0903-4.0869h-1.1953v-4.9731h2.8511     c1.0068,0,1.8262-0.9478,1.8262-2.1128v-2.5054h29.4385c2.9033,0,5.2656-2.3623,5.2656-5.2661V16.4229     c0-1.3232,0.0112-3.4297,0.0225-5.541c0.0112-2.1245,0.0225-4.2539,0.0225-5.5977C57.5527,3.002,55.4038,1,52.9541,1z      M12.8442,58.9131v-7.8027c0-1.1509,0.938-2.0869,2.0908-2.0869h1.1914V61h-1.1914C13.7822,61,12.8442,60.064,12.8442,58.9131z      M21.4121,51.1104v7.8027c0,1.1509-0.9375,2.0869-2.0903,2.0869h-1.1953V49.0234h1.1953     C20.4746,49.0234,21.4121,49.9595,21.4121,51.1104z M20.8037,39.9375c0,0.0449-0.0059,0.083-0.0137,0.1128h-7.0576     c-0.0073-0.0303-0.0132-0.0679-0.0132-0.1128v-2.5054h7.0845V39.9375z M55.5303,10.8716     c-0.0112,2.1147-0.0225,4.2256-0.0225,5.5513V32.166c0,1.8008-1.4648,3.2661-3.2656,3.2661H11.7129     c-1.8008,0-3.2656-1.4653-3.2656-3.2661v-1.5654H18.644c0.5522,0,1-0.4478,1-1s-0.4478-1-1-1H8.4473v-2.7461H18.644     c0.5522,0,1-0.4478,1-1s-0.4478-1-1-1H8.4473v-2.7432H18.644c0.5522,0,1-0.4478,1-1s-0.4478-1-1-1H8.4473v-2.6885     c0-1.8008,1.4648-3.2661,3.2656-3.2661h13.5015l1.4912-7.6812C26.939,4.2788,27.6675,3,29.0117,3h23.9424     c1.3359,0,2.5986,1.1099,2.5986,2.2842C55.5527,6.6255,55.5415,8.751,55.5303,10.8716z"/></g></g></g></svg>