<?xml version="1.0" ?><!DOCTYPE svg  PUBLIC '-//W3C//DTD SVG 1.1//EN'  'http://www.w3.org/Graphics/SVG/1.1/DTD/svg11.dtd'><svg height="512px" style="shape-rendering:geometricPrecision; text-rendering:geometricPrecision; image-rendering:optimizeQuality; fill-rule:evenodd; clip-rule:evenodd" viewBox="0 0 512 512" width="512px" xml:space="preserve" xmlns="http://www.w3.org/2000/svg" xmlns:xlink="http://www.w3.org/1999/xlink"><defs><style type="text/css">
   <![CDATA[
    .str0 {stroke:black;stroke-width:0.125008}
    .fil0 {fill:none}
    .fil3 {fill:black}
    .fil5 {fill:#1A1A1A}
    .fil8 {fill:#1A2B4A}
    .fil1 {fill:#212121}
    .fil9 {fill:#27241D}
    .fil13 {fill:#303134}
    .fil2 {fill:#333333}
    .fil4 {fill:#424141}
    .fil14 {fill:#4D4D4D}
    .fil6 {fill:#4E4945}
    .fil15 {fill:#666666}
    .fil7 {fill:#B3B3B3}
    .fil12 {fill:#D8D59E}
    .fil11 {fill:#D9BB9F}
    .fil10 {fill:#E6E6E6}
    .fil16 {fill:#D4D4D4;fill-rule:nonzero}
   ]]>
  </style></defs><g id="Layer_x0020_1"><rect class="fil0" height="512" width="512"/><path class="fil1" d="M424.328 80.6051l-124.756 0c-14.1214,0 -25.6753,11.5556 -25.6753,25.6753l0 12.1461 176.106 0 0 -12.1461c0,-14.1214 -11.5538,-25.6753 -25.6752,-25.6753zm-150.431 37.8214l0 287.293c0,14.1197 11.5556,25.6752 25.6753,25.6752l124.756 0c14.1197,0 25.6752,-11.5538 25.6752,-25.6752l0 -287.293 -176.106 0z"/><path class="fil2" d="M448.16 393.837l0 11.8828c0,13.1031 -10.7289,23.8319 -23.8319,23.8319l-124.756 0c-13.1023,0 -23.8319,-10.7297 -23.8319,-23.8319l0 -11.8828 172.42 0z"/><path class="fil3" d="M445 396.997l-166.1 0 0 8.72277c0,11.358 9.31394,20.6719 20.672,20.6719l124.756 0c11.3589,0 20.6719,-9.31309 20.6719,-20.6719l0 -8.72277z"/><polygon class="fil3" points="448.16,118.427 448.16,393.837 275.74,393.837 275.74,118.427 "/><path class="fil2" d="M424.328 82.4484c13.1039,0 23.8319,10.728 23.8319,23.832l0 12.1461 -172.42 0 0 -12.1461c0,-13.1031 10.7288,-23.832 23.8319,-23.832l124.756 0z"/><path class="fil3" d="M278.9 115.267l166.1 0 0 -8.98611c0,-11.3598 -9.31224,-20.672 -20.6719,-20.672l-124.756 0c-11.3589,0 -20.672,9.31309 -20.672,20.672l0 8.98611z"/><rect class="fil1" height="26.8995" rx="0.240024" ry="0.240024" width="1.31666" x="272.584" y="157.755"/><g id="_133636992"><rect class="fil1" height="13.8869" id="_133637280" rx="0.240024" ry="0.240024" width="1.31666" x="449.968" y="126.713"/><rect class="fil1" height="26.8995" id="_133636848" rx="0.240024" ry="0.240024" width="1.12674" x="450.007" y="157.817"/><rect class="fil1" height="27.0539" id="_133637136" rx="0.240024" ry="0.240024" width="1.31666" x="450.007" y="190.939"/></g><circle class="fil4" cx="310.59" cy="100.437" r="8.30076"/><circle class="fil5" cx="310.59" cy="100.437" r="6.78342"/><circle class="fil6" cx="310.59" cy="100.438" r="4.52831"/><circle class="fil7" cx="333.841" cy="100.437" r="4.84371"/><circle class="fil8" cx="310.59" cy="100.438" r="3.05578"/><circle class="fil2" cx="310.59" cy="100.438" r="3.05578"/><circle class="fil9" cx="324.157" cy="100.438" r="1.69587"/><circle class="fil10" cx="333.841" cy="100.437" r="4.59675"/><circle class="fil11" cx="333.841" cy="102.714" r="0.859087"/><circle class="fil12" cx="333.841" cy="98.1614" r="0.859087"/><g id="_133635672"><circle class="fil8" cx="310.59" cy="100.438" id="_133636056" r="2.30006"/><circle class="fil10" cx="310.102" cy="101.829" id="_133635792" r="0.475252"/><circle class="fil10" cx="310.737" cy="99.2315" id="_133635408" r="0.270595"/><circle class="fil10" cx="311.013" cy="98.5302" id="_133635336" r="0.148827"/></g><path class="fil1" d="M87.6719 80.6051l124.756 0c14.1214,0 25.6753,11.5556 25.6753,25.6753l0 299.439c0,14.1197 -11.5556,25.6752 -25.6753,25.6752l-124.756 0c-14.1197,0 -25.6752,-11.5538 -25.6752,-25.6752l0 -299.439c0,-14.1214 11.5538,-25.6753 25.6752,-25.6753z"/><path class="fil3" d="M87.6719 82.4484c-13.1039,0 -23.8319,10.728 -23.8319,23.832l0 299.439c0,13.1031 10.7289,23.8319 23.8319,23.8319l124.756 0c13.1023,0 23.8319,-10.7297 23.8319,-23.8319l0 -299.439c0,-13.1031 -10.7288,-23.832 -23.8319,-23.832l-124.756 0z"/><circle class="fil13 str0" cx="149.978" cy="93.6415" r="1.87728"/><g id="_133634784"><circle class="fil4" cx="126.53" cy="103.614" id="_133634352" r="2.9959"/><circle class="fil8" cx="126.53" cy="103.614" id="_133634880" r="1.65855"/></g><circle class="fil14" cx="149.798" cy="407.327" r="12.1801"/><circle class="fil3" cx="149.798" cy="407.327" r="10.7632"/><rect class="fil1 str0" height="265.134" rx="1.08" ry="1.08" width="156.697" x="71.6665" y="123.582"/><rect class="fil1" height="26.8995" rx="0.240024" ry="0.240024" width="1.31666" x="238.1" y="157.755"/><g id="_133633632"><rect class="fil1" height="13.8869" id="_133634592" rx="0.240024" ry="0.240024" width="1.31666" x="60.715" y="126.713"/><rect class="fil1" height="26.8995" id="_133633800" rx="0.240024" ry="0.240024" width="1.12674" x="60.8662" y="157.817"/><rect class="fil1" height="27.0539" id="_133634328" rx="0.240024" ry="0.240024" width="1.31666" x="60.6763" y="190.939"/></g><g id="_133626432"><rect class="fil3" height="2.46917" id="_133634256" rx="7.67998" ry="7.67998" width="27.7791" x="136.255" y="102.186"/><rect class="fil15" height="0.671042" id="_133634304" width="0.671042" x="163.236" y="103.06"/><rect class="fil15" height="0.671042" id="_133633920" width="0.671042" x="161.894" y="103.06"/><rect class="fil15" height="0.671042" id="_133633680" width="0.671042" x="160.552" y="103.06"/><rect class="fil15" height="0.671042" id="_133633560" width="0.671042" x="159.21" y="103.06"/><rect class="fil15" height="0.671042" id="_133633392" width="0.671042" x="157.868" y="103.06"/><rect class="fil15" height="0.671042" id="_133632936" width="0.671042" x="156.526" y="103.06"/><rect class="fil15" height="0.671042" id="_133632864" width="0.671042" x="155.183" y="103.06"/><rect class="fil15" height="0.671042" id="_133633272" width="0.671042" x="153.841" y="103.06"/><rect class="fil15" height="0.671042" id="_133632984" width="0.671042" x="152.499" y="103.06"/><rect class="fil15" height="0.671042" id="_133632576" width="0.671042" x="136.382" y="103.06"/><rect class="fil15" height="0.671042" id="_133632240" width="0.671042" x="137.724" y="103.06"/><rect class="fil15" height="0.671042" id="_133632528" width="0.671042" x="139.066" y="103.06"/><rect class="fil15" height="0.671042" id="_133632696" width="0.671042" x="140.408" y="103.06"/><rect class="fil15" height="0.671042" id="_133632792" width="0.671042" x="141.75" y="103.06"/><rect class="fil15" height="0.671042" id="_133632312" width="0.671042" x="143.092" y="103.06"/><rect class="fil15" height="0.671042" id="_133631304" width="0.671042" x="144.434" y="103.06"/><rect class="fil15" height="0.671042" id="_133631280" width="0.671042" x="145.776" y="103.06"/><rect class="fil15" height="0.671042" id="_133631448" width="0.671042" x="147.118" y="103.06"/><rect class="fil15" height="0.671042" id="_133631376" width="0.671042" x="148.46" y="103.06"/><rect class="fil15" height="0.671042" id="_133631592" width="0.671042" x="149.802" y="103.06"/><rect class="fil15" height="0.671042" id="_133631352" width="0.671042" x="151.145" y="103.06"/><rect class="fil15" height="0.671042" id="_133631568" width="0.671042" x="162.552" y="103.731"/><rect class="fil15" height="0.671042" id="_133630656" width="0.671042" x="161.21" y="103.731"/><rect class="fil15" height="0.671042" id="_133630776" width="0.671042" x="159.868" y="103.731"/><rect class="fil15" height="0.671042" id="_133631256" width="0.671042" x="158.526" y="103.731"/><rect class="fil15" height="0.671042" id="_133631016" width="0.671042" x="157.184" y="103.731"/><rect class="fil15" height="0.671042" id="_133630848" width="0.671042" x="155.842" y="103.731"/><rect class="fil15" height="0.671042" id="_133631184" width="0.671042" x="154.5" y="103.731"/><rect class="fil15" height="0.671042" id="_133630200" width="0.671042" x="153.158" y="103.731"/><rect class="fil15" height="0.671042" id="_133630464" width="0.671042" x="137.041" y="103.731"/><rect class="fil15" height="0.671042" id="_133630008" width="0.671042" x="138.382" y="103.731"/><rect class="fil15" height="0.671042" id="_133630416" width="0.671042" x="139.724" y="103.731"/><rect class="fil15" height="0.671042" id="_133630296" width="0.671042" x="141.066" y="103.731"/><rect class="fil15" height="0.671042" id="_133630320" width="0.671042" x="142.408" y="103.731"/><rect class="fil15" height="0.671042" id="_133629240" width="0.671042" x="143.75" y="103.731"/><rect class="fil15" height="0.671042" id="_133629528" width="0.671042" x="145.092" y="103.731"/><rect class="fil15" height="0.671042" id="_133629504" width="0.671042" x="146.435" y="103.731"/><rect class="fil15" height="0.671042" id="_133629312" width="0.671042" x="147.777" y="103.731"/><rect class="fil15" height="0.671042" id="_133629120" width="0.671042" x="149.119" y="103.731"/><rect class="fil15" height="0.671042" id="_133629672" width="0.671042" x="150.461" y="103.731"/><rect class="fil15" height="0.671042" id="_133629072" width="0.671042" x="151.803" y="103.731"/><rect class="fil15" height="0.671042" id="_133628760" width="0.671042" x="162.552" y="102.414"/><rect class="fil15" height="0.671042" id="_133628208" width="0.671042" x="161.21" y="102.414"/><rect class="fil15" height="0.671042" id="_133628904" width="0.671042" x="159.868" y="102.414"/><rect class="fil15" height="0.671042" id="_133628256" width="0.671042" x="158.526" y="102.414"/><rect class="fil15" height="0.671042" id="_133628520" width="0.671042" x="157.184" y="102.414"/><rect class="fil15" height="0.671042" id="_133628472" width="0.671042" x="155.842" y="102.414"/><rect class="fil15" height="0.671042" id="_133627680" width="0.671042" x="154.5" y="102.414"/><rect class="fil15" height="0.671042" id="_133628088" width="0.671042" x="153.158" y="102.414"/><rect class="fil15" height="0.671042" id="_133627776" width="0.671042" x="137.041" y="102.414"/><rect class="fil15" height="0.671042" id="_133628112" width="0.671042" x="138.382" y="102.414"/><rect class="fil15" height="0.671042" id="_133627824" width="0.671042" x="139.724" y="102.414"/><rect class="fil15" height="0.671042" id="_133628160" width="0.671042" x="141.066" y="102.414"/><rect class="fil15" height="0.671042" id="_133626768" width="0.671042" x="142.408" y="102.414"/><rect class="fil15" height="0.671042" id="_133627272" width="0.671042" x="143.75" y="102.414"/><rect class="fil15" height="0.671042" id="_133626816" width="0.671042" x="145.092" y="102.414"/><rect class="fil15" height="0.671042" id="_133627008" width="0.671042" x="146.435" y="102.414"/><rect class="fil15" height="0.671042" id="_133627224" width="0.671042" x="147.777" y="102.414"/><rect class="fil15" height="0.671042" id="_133627368" width="0.671042" x="149.119" y="102.414"/><rect class="fil15" height="0.671042" id="_133626864" width="0.671042" x="150.461" y="102.414"/><rect class="fil15" height="0.671042" id="_133626288" width="0.671042" x="151.803" y="102.414"/></g><g id="_133626648"><circle class="fil8" cx="126.53" cy="103.614" id="_133626504" r="1.79012"/><circle class="fil10" cx="126.149" cy="104.697" id="_133626192" r="0.369886"/><circle class="fil10" cx="126.644" cy="102.675" id="_133626216" r="0.210603"/><circle class="fil10" cx="126.859" cy="102.13" id="_133626168" r="0.115832"/></g><path class="fil16" d="M333.918 99.9678c0.100488,0.0162992 0.19063,0.0642756 0.259654,0.133228l0.000283465 0.000283465c0.0690236,0.0690236 0.116929,0.159165 0.133228,0.259724l-0.127205 0c-0.0146693,-0.0663307 -0.0480473,-0.125504 -0.0941811,-0.171567l-0.000283465 -0.000283465c-0.046063,-0.0461339 -0.105236,-0.0795118 -0.171496,-0.0941811l0 -0.127205zm0.393165 0.546236c-0.0163701,0.100843 -0.0642756,0.191055 -0.133228,0.260008l-0.000141732 -0.000141732c-0.0690236,0.0690236 -0.159236,0.117071 -0.259795,0.13337l0 -0.127205c0.0662599,-0.0146693 0.125433,-0.0480473 0.171496,-0.0941811l0 -0.000283465c0.0462047,-0.0462047 0.0795827,-0.105378 0.0943937,-0.171567l0.127276 0zm-0.546165 0.393307c-0.100843,-0.0162992 -0.191055,-0.0642756 -0.260079,-0.133299 -0.0689528,-0.0689528 -0.116858,-0.159165 -0.133228,-0.260008l0.127276 0c0.014811,0.066189 0.048189,0.125362 0.0943937,0.171567 0.0462047,0.0462047 0.105449,0.0796536 0.171638,0.0943937l0 0.127346zm-0.393307 -0.546307c0.0162992,-0.100559 0.0642756,-0.190772 0.13337,-0.259866l-0.000141732 -0.000141732c0.0690236,-0.0690236 0.159236,-0.117 0.260079,-0.133299l0 0.127346c-0.066189,0.0147402 -0.125433,0.048189 -0.171638,0.0943937l-0.000283465 0c-0.0461339,0.046063 -0.0795118,0.105236 -0.0941811,0.171567l-0.127205 0zm0.546307 -4.63535c1.27084,0.0201969 2.41972,0.543614 3.25566,1.37962 0.836079,0.836008 1.35943,1.98489 1.37962,3.25573l-0.125079 0c-0.0201969,-1.2364 -0.529512,-2.35389 -1.34298,-3.16729 -0.813402,-0.813473 -1.93089,-1.32279 -3.16722,-1.34298l0 -0.125079zm4.63528 4.78835c-0.0201969,1.27084 -0.543614,2.41972 -1.37962,3.25566 -0.835937,0.835937 -1.98475,1.35943 -3.25566,1.37962l0 -0.125079c1.23626,-0.0201969 2.35389,-0.529654 3.16722,-1.34298 0.813473,-0.813402 1.32279,-1.93089 1.34298,-3.16722l0.125079 0zm-4.78828 4.63528c-1.27091,-0.0201969 -2.4198,-0.543685 -3.25573,-1.37962 -0.835937,-0.835937 -1.35943,-1.98475 -1.37962,-3.25566l0.125079 0c0.0201969,1.23626 0.529654,2.35389 1.34298,3.16722 0.813331,0.813331 1.93096,1.32279 3.16729,1.34298l0 0.125079zm-4.63535 -4.78828c0.0201969,-1.27091 0.543685,-2.4198 1.37962,-3.25573 0.836008,-0.836079 1.98489,-1.35943 3.25573,-1.37962l0 0.125079c-1.2364,0.0201969 -2.35389,0.529512 -3.16729,1.34298 -0.813331,0.813331 -1.32279,1.93096 -1.34298,3.16729l-0.125079 0zm4.78835 -4.26756c1.16936,0.0202677 2.22633,0.502512 2.99565,1.27183 0.769394,0.769394 1.25164,1.82636 1.27183,2.99572l-0.125079 0c-0.020126,-1.13485 -0.48841,-2.1605 -1.2352,-2.90728 -0.746787,-0.746787 -1.77243,-1.215 -2.90721,-1.2352l0 -0.125079zm4.26749 4.42056c-0.0202677,1.16929 -0.50237,2.22633 -1.27183,2.99565 -0.769394,0.769394 -1.82622,1.25157 -2.99565,1.27183l0 -0.125079c1.13478,-0.0201969 2.16043,-0.48841 2.90721,-1.2352 0.746929,-0.746858 1.21507,-1.77243 1.2352,-2.90721l0.125079 0zm-4.42049 4.26749c-1.16936,-0.0201969 -2.22633,-0.502441 -2.99572,-1.27183 -0.769323,-0.769323 -1.25157,-1.82629 -1.27183,-2.99565l0.125079 0c0.0201969,1.13478 0.48841,2.16043 1.2352,2.90721 0.746787,0.746787 1.77243,1.21507 2.90728,1.2352l0 0.125079zm-4.26756 -4.42049c0.0201969,-1.16936 0.502441,-2.22633 1.27183,-2.99572 0.769394,-0.769394 1.82636,-1.25164 2.99572,-1.27183l0 0.125079c-1.13485,0.020126 -2.1605,0.48841 -2.90728,1.2352 -0.746787,0.746787 -1.21507,1.77243 -1.2352,2.90728l-0.125079 0zm4.42056 -3.87248c1.06037,0.0201969 2.01848,0.458079 2.71644,1.15597 0.69789,0.697961 1.13591,1.65607 1.15604,2.71651l-0.125079 0c-0.0200551,-1.02579 -0.444047,-1.95265 -1.1194,-2.62807 -0.675425,-0.675354 -1.60228,-1.09928 -2.628,-1.1194l0 -0.125008zm3.87241 4.02548c-0.0201969,1.06023 -0.45815,2.01855 -1.15597,2.71644 -0.697961,0.69789 -1.65607,1.13577 -2.71644,1.15597l0 -0.125008c1.02572,-0.020126 1.95258,-0.444047 2.628,-1.1194 0.675354,-0.675425 1.09928,-1.60228 1.1194,-2.628l0.125008 0zm-4.02541 3.87248c-1.06023,-0.0201969 -2.01855,-0.45815 -2.71651,-1.15604 -0.697819,-0.69789 -1.13577,-1.65621 -1.15597,-2.71644l0.125008 0c0.020126,1.02572 0.444047,1.95258 1.1194,2.628 0.675425,0.675354 1.60228,1.09935 2.62807,1.1194l0 0.125079zm-3.87255 -4.02548c0.020126,-1.06044 0.45815,-2.01855 1.15604,-2.71651 0.697961,-0.69789 1.65628,-1.13584 2.71651,-1.15604l0 0.125079c-1.02579,0.0200551 -1.95265,0.444047 -2.62807,1.1194 -0.675354,0.675425 -1.09935,1.60228 -1.1194,2.62807l-0.125079 0zm4.02555 -3.38861c0.926646,0.0200551 1.76393,0.403866 2.37437,1.01424 0.610441,0.610441 0.994181,1.44765 1.01424,2.37437l-0.125008 0c-0.0200551,-0.892205 -0.389835,-1.69809 -0.977669,-2.28593 -0.587835,-0.587764 -1.39387,-0.957614 -2.28593,-0.977669l0 -0.125008zm3.38861 3.54161c-0.0200551,0.926646 -0.403866,1.76393 -1.01424,2.37437 -0.610441,0.61037 -1.44772,0.994181 -2.37437,1.01424l0 -0.125008c0.892063,-0.0200551 1.69809,-0.389906 2.28593,-0.977669 0.587764,-0.587835 0.957614,-1.3938 0.977669,-2.28593l0.125008 0zm-3.54161 3.38861c-0.926717,-0.0200551 -1.76393,-0.403795 -2.37444,-1.01424 -0.61037,-0.610441 -0.994181,-1.44772 -1.01424,-2.37437l0.125008 0c0.0200551,0.892134 0.389906,1.69809 0.977669,2.28593 0.587906,0.587835 1.3938,0.957614 2.286,0.977669l0 0.125008zm-3.38868 -3.54161c0.0200551,-0.926717 0.403795,-1.76393 1.01424,-2.37437 0.610512,-0.610441 1.44772,-0.994181 2.37444,-1.01424l0 0.125008c-0.892205,0.0200551 -1.69809,0.389835 -2.286,0.977669 -0.587835,0.587835 -0.957614,1.39372 -0.977669,2.28593l-0.125008 0zm3.54168 -2.99303c0.817512,0.0200551 1.5558,0.359575 2.09459,0.89837 0.538866,0.538866 0.878386,1.27708 0.89837,2.09466l-0.125079 0c-0.0199134,-0.782858 -0.345472,-1.48996 -0.861732,-2.00622 -0.516189,-0.516189 -1.22329,-0.841748 -2.00615,-0.861732l0 -0.125079zm2.99296 3.14603c-0.0200551,0.81737 -0.359575,1.5558 -0.89837,2.09459 -0.538795,0.538795 -1.27708,0.878315 -2.09459,0.89837l0 -0.125079c0.782858,-0.0199843 1.48996,-0.345543 2.00615,-0.861732 0.516189,-0.516189 0.841748,-1.22329 0.861732,-2.00615l0.125079 0zm-3.14596 2.99296c-0.817441,-0.0199843 -1.5558,-0.359504 -2.09466,-0.89837 -0.538795,-0.538795 -0.878315,-1.27722 -0.89837,-2.09459l0.125079 0c0.0199843,0.782858 0.345543,1.48996 0.861732,2.00615 0.51626,0.51626 1.22336,0.841819 2.00622,0.861732l0 0.125079zm-2.99303 -3.14596c0.0199843,-0.817583 0.359504,-1.5558 0.89837,-2.09466 0.538866,-0.538866 1.27722,-0.878386 2.09466,-0.89837l0 0.125079c-0.782858,0.0199134 -1.48996,0.345472 -2.00622,0.861732 -0.51626,0.51626 -0.841819,1.22336 -0.861732,2.00622l-0.125079 0zm3.14603 -2.53864c0.692079,0.0199134 1.31683,0.308551 1.7735,0.765142 0.456661,0.456661 0.745228,1.08142 0.765142,1.7735l-0.125079 0c-0.0198425,-0.657496 -0.29452,-1.25107 -0.728504,-1.68506 -0.434055,-0.433984 -1.02763,-0.708662 -1.68506,-0.728504l0 -0.125079zm2.53864 2.69164c-0.0199134,0.692079 -0.308551,1.31683 -0.765142,1.7735 -0.456661,0.456591 -1.08142,0.745228 -1.7735,0.765142l0 -0.125079c0.657425,-0.0198425 1.251,-0.29452 1.68506,-0.728504 0.433984,-0.434055 0.708662,-1.02763 0.728504,-1.68506l0.125079 0zm-2.69164 2.53864c-0.692079,-0.0199134 -1.31691,-0.30848 -1.77357,-0.765142 -0.456591,-0.456661 -0.745228,-1.08142 -0.765142,-1.7735l0.125079 0c0.0198425,0.657425 0.29452,1.251 0.728504,1.68506 0.434055,0.433984 1.02763,0.708662 1.68513,0.728504l0 0.125079zm-2.53871 -2.69164c0.0199134,-0.692079 0.30848,-1.31683 0.765142,-1.7735 0.456661,-0.456661 1.08149,-0.745228 1.77357,-0.765142l0 0.125079c-0.657496,0.0198425 -1.25107,0.29452 -1.68513,0.728504 -0.433984,0.433984 -0.708662,1.02756 -0.728504,1.68506l-0.125079 0zm2.69171 -2.09246c0.568843,0.0197008 1.0822,0.258378 1.45814,0.634323 0.375945,0.375874 0.614622,0.889299 0.634323,1.45814l-0.125079 0c-0.0196299,-0.534331 -0.244346,-1.01643 -0.597685,-1.3697 -0.353339,-0.353339 -0.83537,-0.578055 -1.3697,-0.597685l0 -0.125079zm2.09246 2.24546c-0.0197008,0.568843 -0.258378,1.0822 -0.634323,1.45814 -0.375874,0.375945 -0.889158,0.614622 -1.45814,0.634323l0 -0.125079c0.534402,-0.0196299 1.01643,-0.244346 1.3697,-0.597685 0.353339,-0.353339 0.578055,-0.83537 0.597685,-1.3697l0.125079 0zm-2.24546 2.09246c-0.568843,-0.0197008 -1.08227,-0.258378 -1.45821,-0.634323 -0.375945,-0.375945 -0.614622,-0.889299 -0.634323,-1.45814l0.125079 0c0.0196299,0.534331 0.244346,1.01636 0.597685,1.3697 0.353339,0.353339 0.835441,0.578055 1.36977,0.597685l0 0.125079zm-2.09254 -2.24546c0.0197008,-0.568843 0.258378,-1.08227 0.634323,-1.45814 0.375945,-0.375945 0.88937,-0.614622 1.45821,-0.634323l0 0.125079c-0.534331,0.0196299 -1.01643,0.244346 -1.36977,0.597685 -0.353339,0.353268 -0.578055,0.83537 -0.597685,1.3697l-0.125079 0zm2.24554 -1.64849c0.446386,0.0194173 0.848835,0.208417 1.14442,0.504 0.295583,0.295583 0.484512,0.698032 0.504,1.14449l-0.12515 0c-0.0194173,-0.411803 -0.194315,-0.783071 -0.467291,-1.05605 -0.272976,-0.272976 -0.644173,-0.447874 -1.05598,-0.467291l0 -0.12515zm1.64842 1.80149c-0.0194173,0.446315 -0.208417,0.848835 -0.504,1.14442l-0.000283465 0c-0.295654,0.295583 -0.69789,0.484583 -1.14413,0.504l0 -0.12515c0.411874,-0.0194173 0.783071,-0.194244 1.05612,-0.46715l-0.000141732 -0.000141732c0.272976,-0.272976 0.447874,-0.644173 0.467291,-1.05598l0.12515 0zm-1.80142 1.64842c-0.446102,-0.0194173 -0.848551,-0.208417 -1.1442,-0.504l-0.000283465 -0.000283465c-0.295583,-0.295654 -0.484512,-0.698032 -0.504,-1.14413l0.12515 0c0.0194173,0.411874 0.194244,0.783071 0.46715,1.05612 0.273047,0.272906 0.644315,0.447732 1.05619,0.46715l0 0.12515zm-1.64849 -1.80142c0.0194882,-0.446244 0.208417,-0.848551 0.504,-1.1442l0 -0.000283465c0.295583,-0.295583 0.698173,-0.484512 1.14449,-0.504l0 0.12515c-0.411803,0.0194173 -0.783071,0.194315 -1.05605,0.467291l-0.000141732 -0.000141732c-0.272906,0.273047 -0.447732,0.644244 -0.46715,1.05619l-0.12515 0zm1.80149 -1.20224c0.323008,0.019063 0.613984,0.157961 0.828992,0.372898l0.000141732 0.000141732 0.000141732 0.000141732c0.214937,0.215008 0.353835,0.506055 0.372898,0.829063l-0.12522 0c-0.0188504,-0.28885 -0.143646,-0.548787 -0.335835,-0.740906l-0.000283465 -0.000283465c-0.192118,-0.192118 -0.451984,-0.316984 -0.740835,-0.335835l0 -0.12522zm1.20217 1.35524c-0.019063,0.32315 -0.158102,0.614197 -0.372898,0.829063l-0.000283465 0.000283465c-0.214866,0.214795 -0.505913,0.353835 -0.828992,0.372898l0 -0.12522c0.28878,-0.0189213 0.548717,-0.143858 0.740976,-0.335976 0.192118,-0.19226 0.317055,-0.452268 0.335976,-0.741047l0.12522 0zm-1.35517 1.20224c-0.32315,-0.019063 -0.614126,-0.158032 -0.829063,-0.372898l-0.000283465 -0.000283465c-0.214795,-0.214866 -0.353835,-0.505913 -0.372898,-0.829063l0.12522 0c0.0189213,0.28878 0.143858,0.548787 0.335976,0.741047 0.192331,0.192189 0.452268,0.317126 0.741047,0.335976l0 0.12522zm-1.20224 -1.35524c0.0189921,-0.323362 0.157961,-0.61441 0.372898,-0.829347 0.215008,-0.215008 0.506055,-0.353906 0.829347,-0.372898l0 0.12522c-0.288709,0.0188504 -0.548575,0.143787 -0.740906,0.336118 -0.192331,0.192331 -0.317268,0.452197 -0.336118,0.740906l-0.12522 0zm1.35524 -0.739843c0.195803,0.0181417 0.371835,0.105165 0.503221,0.236551 0.131457,0.131457 0.21848,0.307417 0.236551,0.503291l-0.125646 0c-0.0176457,-0.161291 -0.0905669,-0.306071 -0.199346,-0.41485 -0.10878,-0.10878 -0.253488,-0.181701 -0.41478,-0.199346l0 -0.125646zm0.739772 0.892843c-0.0181417,0.195661 -0.105165,0.371551 -0.236551,0.503008l0 0.000283465c-0.131386,0.131386 -0.307417,0.218409 -0.503221,0.236551l0 -0.125646c0.161291,-0.0176457 0.306,-0.0905669 0.41478,-0.199346l0.000141732 0.000141732c0.108709,-0.10885 0.181559,-0.25363 0.199205,-0.414992l0.125646 0zm-0.892772 0.739843c-0.195732,-0.0181417 -0.371622,-0.105165 -0.503079,-0.236551l-0.000283465 -0.000283465c-0.131386,-0.131457 -0.218409,-0.307346 -0.236551,-0.503008l0.125646 0c0.0176457,0.161362 0.0904961,0.306142 0.199205,0.414992 0.10885,0.108709 0.253701,0.181559 0.415063,0.199205l0 0.125646zm-0.739913 -0.892843c0.0180709,-0.195874 0.105095,-0.371835 0.236551,-0.503291l0.000283465 0c0.131457,-0.131386 0.307346,-0.218409 0.503079,-0.236551l0 0.125646c-0.161362,0.0176457 -0.306213,0.0904961 -0.415063,0.199205l0.000141732 0.000141732c-0.10878,0.10878 -0.181701,0.253559 -0.199346,0.41485l-0.125646 0z"/></g></svg>