<?xml version="1.0" ?><!DOCTYPE svg  PUBLIC '-//W3C//DTD SVG 1.1//EN'  'http://www.w3.org/Graphics/SVG/1.1/DTD/svg11.dtd'><svg height="512px" style="shape-rendering:geometricPrecision; text-rendering:geometricPrecision; image-rendering:optimizeQuality; fill-rule:evenodd; clip-rule:evenodd" viewBox="0 0 512 512" width="512px" xml:space="preserve" xmlns="http://www.w3.org/2000/svg" xmlns:xlink="http://www.w3.org/1999/xlink"><defs><style type="text/css">
   <![CDATA[
    .str0 {stroke:black;stroke-width:0.125102}
    .fil0 {fill:none}
    .fil15 {fill:black}
    .fil4 {fill:#1A1A1A}
    .fil7 {fill:#1A2B4A}
    .fil14 {fill:#212121}
    .fil9 {fill:#27241D}
    .fil13 {fill:#303134}
    .fil8 {fill:#333333}
    .fil3 {fill:#424141}
    .fil5 {fill:#4E4945}
    .fil16 {fill:#666666}
    .fil6 {fill:#B3B3B3}
    .fil2 {fill:#CCCCCC}
    .fil11 {fill:#D8D59E}
    .fil10 {fill:#D9BB9F}
    .fil1 {fill:#E6E6E6}
    .fil12 {fill:#F8F8F8}
    .fil17 {fill:#D4D4D4;fill-rule:nonzero}
   ]]>
  </style></defs><g id="Layer_x0020_1"><rect class="fil0" height="512" width="512" y="0.000377953"/><path class="fil1" d="M424.328 80.6053l-124.756 0c-14.1215,0 -25.6755,11.5555 -25.6755,25.6755l0 12.1463 176.106 0 0 -12.1463c0,-14.1215 -11.5536,-25.6755 -25.6751,-25.6755l0.000755906 0zm-150.431 37.8214l0 287.293c0,14.1196 11.5555,25.6751 25.6755,25.6751l124.756 0c14.1196,0 25.6751,-11.5536 25.6751,-25.6751l0 -287.293 -176.106 0 -0.000755906 0z"/><path class="fil2" d="M448.16 393.838l0 11.8828c0,13.1033 -10.729,23.8318 -23.8318,23.8318l-124.756 0c-13.1025,0 -23.8318,-10.7297 -23.8318,-23.8318l0 -11.8828 172.42 0 -0.000377953 0z"/><path class="fil1" d="M445 396.998l-166.1 0 0 8.72278c0,11.3579 9.31389,20.6718 20.6721,20.6718l124.756 0c11.359,0 20.6718,-9.31314 20.6718,-20.6718l0 -8.72278z"/><polygon class="fil1" points="448.16,118.427 448.16,393.838 275.74,393.838 275.74,118.427 "/><path class="fil2" d="M424.328 82.4485c13.104,0 23.8318,10.7282 23.8318,23.8322l0 12.1463 -172.42 0 0 -12.1463c0,-13.1033 10.729,-23.8322 23.8318,-23.8322l124.756 0 0.000377953 0z"/><path class="fil1" d="M278.9 115.267l166.1 0 0 -8.98621c0,-11.3598 -9.31238,-20.6721 -20.6718,-20.6721l-124.756 0c-11.359,0 -20.6721,9.31314 -20.6721,20.6721l0 8.98621z"/><path class="fil2" d="M272.824 157.755l0.83641 0c0.132661,0 0.24,0.107339 0.24,0.24l0 26.4197c0,0.132661 -0.107339,0.24 -0.24,0.24l-0.83641 0c-0.132661,0 -0.24,-0.107339 -0.24,-0.24l0 -26.4197c0,-0.132661 0.107339,-0.24 0.24,-0.24z"/><g id="_276256512"><path class="fil2" d="M450.208 126.713l0.836788 0c0.132661,0 0.24,0.107339 0.24,0.24l0 13.4067c0,0.132661 -0.107339,0.24 -0.24,0.24l-0.836788 0.000377953c-0.132661,-0.000377953 -0.24,-0.107717 -0.24,-0.240378l0 -13.4067c0,-0.132661 0.107339,-0.24 0.24,-0.24z" id="_398368648"/><path class="fil2" d="M450.247 157.817l0.646677 0c0.132661,0 0.24,0.107339 0.24,0.24l0 26.4197c0,0.132661 -0.107339,0.24 -0.24,0.24l-0.646677 0c-0.132661,0 -0.24,-0.107339 -0.24,-0.24l0 -26.4197c0,-0.132661 0.107339,-0.24 0.24,-0.24z" id="_398368528"/><path class="fil2" d="M450.247 190.939l0.836788 0c0.132661,0 0.24,0.107339 0.24,0.24l0 26.5739c0,0.132661 -0.107339,0.24 -0.24,0.24l-0.836788 0.000377953c-0.132661,-0.000377953 -0.24,-0.107717 -0.24,-0.240378l0 -26.5739c0,-0.132661 0.107339,-0.24 0.24,-0.24z" id="_398368096"/></g><circle class="fil3" cx="310.59" cy="100.437" r="8.3006"/><circle class="fil4" cx="310.59" cy="100.437" r="6.7835"/><circle class="fil5" cx="310.59" cy="100.438" r="4.52825"/><circle class="fil6" cx="333.841" cy="100.437" r="4.84347"/><circle class="fil7" cx="310.59" cy="100.438" r="3.05575"/><circle class="fil8" cx="310.59" cy="100.438" r="3.05575"/><circle class="fil9" cx="324.157" cy="100.438" r="1.69587"/><circle class="fil1" cx="333.841" cy="100.437" r="4.59666"/><circle class="fil10" cx="333.841" cy="102.714" r="0.859087"/><circle class="fil11" cx="333.841" cy="98.1616" r="0.859087"/><g id="_276254424"><circle class="fil7" cx="310.59" cy="100.438" id="_276254328" r="2.29984"/><circle class="fil1" cx="310.102" cy="101.829" id="_276254760" r="0.475087"/><circle class="fil1" cx="310.737" cy="99.2319" id="_276254208" r="0.270614"/><circle class="fil1" cx="311.013" cy="98.5304" id="_276254520" r="0.148913"/></g><path class="fil2" d="M87.6719 80.6053l124.756 0c14.1215,0 25.6755,11.5555 25.6755,25.6755l0 299.439c0,14.1196 -11.5555,25.6751 -25.6755,25.6751l-124.756 0c-14.1196,0 -25.6751,-11.5536 -25.6751,-25.6751l0 -299.439c0,-14.1215 11.5536,-25.6755 25.6751,-25.6755z"/><path class="fil12" d="M87.6719 82.4485c-13.104,0 -23.8318,10.7282 -23.8318,23.8322l0 299.439c0,13.1033 10.729,23.8318 23.8318,23.8318l124.756 0c13.1025,0 23.8318,-10.7297 23.8318,-23.8318l0 -299.439c0,-13.1033 -10.729,-23.8322 -23.8318,-23.8322l-124.756 0z"/><circle class="fil13 str0" cx="149.978" cy="93.6416" r="1.87729"/><g id="_276253992"><circle class="fil3" cx="126.53" cy="103.614" id="_276253440" r="2.99566"/><circle class="fil7" cx="126.53" cy="103.614" id="_276254016" r="1.65846"/></g><circle class="fil2" cx="149.798" cy="407.327" r="12.1799"/><circle class="fil1" cx="149.798" cy="407.327" r="10.763"/><path class="fil14 str0" d="M72.7465 123.582l154.537 0c0.596788,0 1.08057,0.48378 1.08057,1.08019l-0.000755906 262.974c0.000755906,0.596032 -0.483024,1.07981 -1.07943,1.07981l-154.537 0c-0.596032,0 -1.07981,-0.48378 -1.07981,-1.08019l-0.000377953 -262.974c0.000377953,-0.59641 0.484158,-1.08019 1.08057,-1.08019z"/><path class="fil2" d="M238.34 157.755l0.83641 0c0.133039,0 0.240378,0.107339 0.240378,0.24l-0.000377953 26.4197c0.000377953,0.132661 -0.106961,0.24 -0.239622,0.24l-0.836788 0c-0.132284,0 -0.239622,-0.107339 -0.239622,-0.24l-0.000377953 -26.4197c0.000377953,-0.132661 0.107717,-0.24 0.240378,-0.24z"/><g id="_276252792"><path class="fil2" d="M60.9551 126.713l0.83641 0c0.133039,0 0.240378,0.107339 0.240378,0.24l-0.000377953 13.4067c0.000377953,0.132661 -0.106961,0.24 -0.239622,0.24l-0.836788 0.000377953c-0.132284,-0.000377953 -0.239622,-0.107717 -0.239622,-0.240378l-0.000755906 -13.4067c0.000755906,-0.132661 0.108095,-0.24 0.240756,-0.24z" id="_398366368"/><path class="fil2" d="M61.1063 157.817l0.646677 0c0.133039,0 0.240378,0.107339 0.240378,0.24l-0.000377953 26.4197c0.000377953,0.132661 -0.106961,0.24 -0.239622,0.24l-0.647055 0c-0.132284,0 -0.239622,-0.107339 -0.239622,-0.24l-0.000755906 -26.4197c0.000755906,-0.132661 0.108095,-0.24 0.240756,-0.24z" id="_398365840"/><path class="fil2" d="M60.9162 190.939l0.836788 0c0.133039,0 0.240378,0.107339 0.240378,0.24l-0.000377953 26.5739c0.000377953,0.132661 -0.106961,0.24 -0.239622,0.24l-0.837166 0.000377953c-0.132284,-0.000377953 -0.239622,-0.107717 -0.239622,-0.240378l-0.000377953 -26.5739c0.000377953,-0.132661 0.107717,-0.24 0.240378,-0.24z" id="_398366200"/></g><g id="_273863528"><path class="fil15" d="M143.935 102.186l12.4192 0c4.24139,-0.000377953 7.68038,0.552567 7.68038,1.23439l-0.000377953 0c0.000377953,0.681827 -3.43862,1.23477 -7.67963,1.23477l-12.4195 0c-4.24063,0 -7.67963,-0.552945 -7.67963,-1.23477l-0.000377953 0c0.000377953,-0.681827 3.43937,-1.23477 7.68038,-1.23477z" id="_398366032"/><rect class="fil16" height="0.670866" id="_276256536" width="0.670866" x="163.236" y="103.061"/><rect class="fil16" height="0.670866" id="_276256416" width="0.670866" x="161.894" y="103.061"/><rect class="fil16" height="0.670866" id="_276255984" width="0.670866" x="160.552" y="103.061"/><rect class="fil16" height="0.670866" id="_276256320" width="0.670866" x="159.21" y="103.061"/><rect class="fil16" height="0.670866" id="_276256176" width="0.670866" x="157.868" y="103.061"/><rect class="fil16" height="0.670866" id="_276256272" width="0.670866" x="156.526" y="103.061"/><rect class="fil16" height="0.670866" id="_276255744" width="0.670866" x="155.183" y="103.061"/><rect class="fil16" height="0.670866" id="_276256248" width="0.670866" x="153.841" y="103.061"/><rect class="fil16" height="0.670866" id="_37283216" width="0.670866" x="152.499" y="103.061"/><rect class="fil16" height="0.670866" id="_37282568" width="0.670866" x="136.382" y="103.061"/><rect class="fil16" height="0.670866" id="_37282688" width="0.670866" x="137.724" y="103.061"/><rect class="fil16" height="0.670866" id="_37282952" width="0.670866" x="139.066" y="103.061"/><rect class="fil16" height="0.670866" id="_37282832" width="0.670866" x="140.408" y="103.061"/><rect class="fil16" height="0.670866" id="_37282976" width="0.670866" x="141.75" y="103.061"/><rect class="fil16" height="0.670866" id="_37286480" width="0.670866" x="143.092" y="103.061"/><rect class="fil16" height="0.670866" id="_37286408" width="0.670866" x="144.434" y="103.061"/><rect class="fil16" height="0.670866" id="_37286360" width="0.670866" x="145.776" y="103.061"/><rect class="fil16" height="0.670866" id="_37286168" width="0.670866" x="147.118" y="103.061"/><rect class="fil16" height="0.670866" id="_37285952" width="0.670866" x="148.46" y="103.061"/><rect class="fil16" height="0.670866" id="_37286096" width="0.670866" x="149.802" y="103.061"/><rect class="fil16" height="0.670866" id="_37285928" width="0.670866" x="151.145" y="103.061"/><rect class="fil16" height="0.670866" id="_37285736" width="0.670866" x="162.552" y="103.731"/><rect class="fil16" height="0.670866" id="_37284920" width="0.670866" x="161.21" y="103.731"/><rect class="fil16" height="0.670866" id="_37285184" width="0.670866" x="159.868" y="103.731"/><rect class="fil16" height="0.670866" id="_37285544" width="0.670866" x="158.526" y="103.731"/><rect class="fil16" height="0.670866" id="_37285424" width="0.670866" x="157.184" y="103.731"/><rect class="fil16" height="0.670866" id="_37285328" width="0.670866" x="155.842" y="103.731"/><rect class="fil16" height="0.670866" id="_37284896" width="0.670866" x="154.5" y="103.731"/><rect class="fil16" height="0.670866" id="_37284200" width="0.670866" x="153.158" y="103.731"/><rect class="fil16" height="0.670866" id="_37284368" width="0.670866" x="137.041" y="103.731"/><rect class="fil16" height="0.670866" id="_37284344" width="0.670866" x="138.382" y="103.731"/><rect class="fil16" height="0.670866" id="_37284320" width="0.670866" x="139.724" y="103.731"/><rect class="fil16" height="0.670866" id="_37284464" width="0.670866" x="141.066" y="103.731"/><rect class="fil16" height="0.670866" id="_37284728" width="0.670866" x="142.408" y="103.731"/><rect class="fil16" height="0.670866" id="_37284440" width="0.670866" x="143.75" y="103.731"/><rect class="fil16" height="0.670866" id="_37283672" width="0.670866" x="145.092" y="103.731"/><rect class="fil16" height="0.670866" id="_37283312" width="0.670866" x="146.435" y="103.731"/><rect class="fil16" height="0.670866" id="_37284032" width="0.670866" x="147.777" y="103.731"/><rect class="fil16" height="0.670866" id="_37283816" width="0.670866" x="149.119" y="103.731"/><rect class="fil16" height="0.670866" id="_37283432" width="0.670866" x="150.461" y="103.731"/><rect class="fil16" height="0.670866" id="_37283936" width="0.670866" x="151.803" y="103.731"/><rect class="fil16" height="0.670866" id="_273862328" width="0.670866" x="162.552" y="102.415"/><rect class="fil16" height="0.670866" id="_273861032" width="0.670866" x="161.21" y="102.415"/><rect class="fil16" height="0.670866" id="_273861008" width="0.670866" x="159.868" y="102.415"/><rect class="fil16" height="0.670866" id="_273861104" width="0.670866" x="158.526" y="102.415"/><rect class="fil16" height="0.670866" id="_273861248" width="0.670866" x="157.184" y="102.415"/><rect class="fil16" height="0.670866" id="_273860864" width="0.670866" x="155.842" y="102.415"/><rect class="fil16" height="0.670866" id="_273860744" width="0.670866" x="154.5" y="102.415"/><rect class="fil16" height="0.670866" id="_273864392" width="0.670866" x="153.158" y="102.415"/><rect class="fil16" height="0.670866" id="_273863936" width="0.670866" x="137.041" y="102.415"/><rect class="fil16" height="0.670866" id="_273863768" width="0.670866" x="138.382" y="102.415"/><rect class="fil16" height="0.670866" id="_273864272" width="0.670866" x="139.724" y="102.415"/><rect class="fil16" height="0.670866" id="_273864128" width="0.670866" x="141.066" y="102.415"/><rect class="fil16" height="0.670866" id="_273864008" width="0.670866" x="142.408" y="102.415"/><rect class="fil16" height="0.670866" id="_273863984" width="0.670866" x="143.75" y="102.415"/><rect class="fil16" height="0.670866" id="_273864344" width="0.670866" x="145.092" y="102.415"/><rect class="fil16" height="0.670866" id="_273862928" width="0.670866" x="146.435" y="102.415"/><rect class="fil16" height="0.670866" id="_273863408" width="0.670866" x="147.777" y="102.415"/><rect class="fil16" height="0.670866" id="_273862976" width="0.670866" x="149.119" y="102.415"/><rect class="fil16" height="0.670866" id="_273863480" width="0.670866" x="150.461" y="102.415"/><rect class="fil16" height="0.670866" id="_273863336" width="0.670866" x="151.803" y="102.415"/></g><g id="_273862112"><circle class="fil7" cx="126.53" cy="103.614" id="_273863192" r="1.78999"/><circle class="fil1" cx="126.149" cy="104.697" id="_273862304" r="0.369638"/><circle class="fil1" cx="126.644" cy="102.675" id="_273862688" r="0.21052"/><circle class="fil1" cx="126.859" cy="102.13" id="_273862448" r="0.115654"/></g><path class="fil17" d="M333.918 99.9682c0.100535,0.016252 0.190488,0.064252 0.259654,0.133039l0.000377953 0.000377953c0.0691654,0.0691654 0.116787,0.159118 0.133039,0.259654l-0.12737 0c-0.0147402,-0.0661418 -0.048,-0.12548 -0.0941103,-0.171591l-0.000377953 -0.000377953c-0.0461103,-0.0461103 -0.105071,-0.0793701 -0.171591,-0.0941103l0 -0.12737 0.000377953 0.000377953zm0.393071 0.546142c-0.016252,0.100913 -0.064252,0.190866 -0.133039,0.260032l0 0c-0.0691654,0.0691654 -0.159118,0.117165 -0.259654,0.133417l0 -0.12737c0.0661418,-0.0147402 0.12548,-0.048 0.171591,-0.0941103l0 -0.000377953c0.0461103,-0.0461103 0.0797481,-0.105449 0.0944882,-0.171591l0.12737 0 -0.000755906 0zm-0.546142 0.393449c-0.100913,-0.016252 -0.190866,-0.064252 -0.260032,-0.133417 -0.0687874,-0.0687874 -0.116787,-0.159118 -0.133039,-0.260032l0.12737 0c0.0147402,0.0661418 0.048378,0.12548 0.0944882,0.171591 0.0461103,0.0461103 0.105449,0.0797481 0.171591,0.0944882l0 0.12737 -0.000377953 0zm-0.393071 -0.54652c0.016252,-0.100535 0.064252,-0.190866 0.133417,-0.260032l0 0c0.0691654,-0.0691654 0.159118,-0.117165 0.260032,-0.133417l0 0.12737c-0.0661418,0.0147402 -0.12548,0.048378 -0.171591,0.0944882l-0.000377953 0c-0.0461103,0.0461103 -0.0793701,0.105071 -0.0941103,0.171591l-0.12737 0zm0.546142 -4.63521c1.27068,0.0200315 2.41965,0.543496 3.25569,1.37953 0.836032,0.836032 1.3595,1.98501 1.37953,3.25569l-0.125102 0c-0.0200315,-1.23628 -0.529512,-2.35389 -1.34287,-3.16725 -0.813355,-0.813355 -1.93096,-1.32284 -3.16725,-1.34287l0 -0.125102zm4.63521 4.78829c-0.0200315,1.27068 -0.543496,2.41965 -1.37953,3.25569 -0.836032,0.836032 -1.98463,1.3595 -3.25569,1.37953l0 -0.125102c1.23628,-0.0200315 2.35389,-0.529512 3.16725,-1.34287 0.813355,-0.813355 1.32284,-1.93096 1.34287,-3.16725l0.125102 0zm-4.78829 4.63521c-1.27106,-0.0200315 -2.41965,-0.543496 -3.25569,-1.37953 -0.836032,-0.836032 -1.3595,-1.98463 -1.37953,-3.25569l0.125102 0c0.0200315,1.23628 0.529512,2.35389 1.34287,3.16725 0.813355,0.813355 1.93096,1.32284 3.16725,1.34287l0 0.125102zm-4.63521 -4.78829c0.0200315,-1.27106 0.543496,-2.41965 1.37953,-3.25569 0.836032,-0.836032 1.98501,-1.3595 3.25569,-1.37953l0 0.125102c-1.23628,0.0200315 -2.35389,0.529512 -3.16725,1.34287 -0.813355,0.813355 -1.32284,1.93096 -1.34287,3.16725l-0.125102 0zm4.78829 -4.26747c1.16939,0.0204095 2.22614,0.502677 2.99566,1.27181 0.769512,0.769512 1.25178,1.82627 1.27181,2.99566l-0.125102 0c-0.0200315,-1.13499 -0.488315,-2.16038 -1.23515,-2.90721 -0.746835,-0.746835 -1.7726,-1.21512 -2.90721,-1.23515l0 -0.125102zm4.26747 4.42054c-0.0204095,1.16939 -0.502299,2.22614 -1.27181,2.99566 -0.769512,0.769512 -1.82627,1.2514 -2.99566,1.27181l0 -0.125102c1.13461,-0.0200315 2.16038,-0.488315 2.90721,-1.23515 0.746835,-0.746835 1.21512,-1.7726 1.23515,-2.90721l0.125102 0zm-4.42054 4.26747c-1.16939,-0.0200315 -2.22614,-0.502299 -2.99566,-1.27181 -0.769512,-0.769512 -1.2514,-1.82627 -1.27181,-2.99566l0.125102 0c0.0200315,1.13461 0.488315,2.16038 1.23515,2.90721 0.746835,0.746835 1.7726,1.21512 2.90721,1.23515l0 0.125102zm-4.26747 -4.42054c0.0200315,-1.16939 0.502299,-2.22614 1.27181,-2.99566 0.769512,-0.769512 1.82627,-1.25178 2.99566,-1.27181l0 0.125102c-1.13499,0.0200315 -2.16038,0.488315 -2.90721,1.23515 -0.746835,0.746835 -1.21512,1.7726 -1.23515,2.90721l-0.125102 0zm4.42054 -3.87251c1.06054,0.0200315 2.01865,0.458079 2.71635,1.15616 0.698079,0.698079 1.13575,1.65619 1.15616,2.71635l-0.125102 0c-0.0200315,-1.02576 -0.444095,-1.9525 -1.1195,-2.62791 -0.675402,-0.675402 -1.60214,-1.09947 -2.62791,-1.1195l0 -0.125102zm3.87251 4.02558c-0.0200315,1.06016 -0.458079,2.01865 -1.15616,2.71635 -0.698079,0.698079 -1.65619,1.13575 -2.71635,1.15616l0 -0.125102c1.02576,-0.0200315 1.9525,-0.444095 2.62791,-1.1195 0.675402,-0.675402 1.09947,-1.60214 1.1195,-2.62791l0.125102 0zm-4.02558 3.87251c-1.06016,-0.0200315 -2.01865,-0.458079 -2.71635,-1.15616 -0.697701,-0.698079 -1.13575,-1.65619 -1.15616,-2.71635l0.125102 0c0.0200315,1.02576 0.444095,1.9525 1.1195,2.62791 0.675402,0.675402 1.60214,1.09947 2.62791,1.1195l0 0.125102zm-3.87251 -4.02558c0.0200315,-1.06054 0.458079,-2.01865 1.15616,-2.71635 0.698079,-0.698079 1.65619,-1.13575 2.71635,-1.15616l0 0.125102c-1.02576,0.0200315 -1.9525,0.444095 -2.62791,1.1195 -0.675402,0.675402 -1.09947,1.60214 -1.1195,2.62791l-0.125102 0zm4.02558 -3.38835c0.926741,0.0200315 1.76391,0.404032 2.3743,1.01443 0.610394,0.610394 0.994016,1.44756 1.01443,2.3743l-0.125102 0c-0.0200315,-0.892347 -0.389669,-1.69814 -0.977764,-2.28586 -0.587717,-0.587717 -1.39389,-0.957733 -2.28586,-0.977764l0 -0.125102zm3.38873 3.54142c-0.0200315,0.926741 -0.404032,1.76391 -1.01443,2.3743 -0.610394,0.610394 -1.44756,0.994016 -2.3743,1.01443l0 -0.125102c0.891969,-0.0200315 1.69814,-0.390047 2.28586,-0.977764 0.587717,-0.587717 0.957733,-1.39389 0.977764,-2.28586l0.125102 0zm-3.5418 3.38873c-0.926741,-0.0200315 -1.76391,-0.403654 -2.3743,-1.01443 -0.610394,-0.610394 -0.994016,-1.44756 -1.01443,-2.3743l0.125102 0c0.0200315,0.891969 0.390047,1.69814 0.977764,2.28586 0.588095,0.587717 1.39389,0.957733 2.28586,0.977764l0 0.125102zm-3.38873 -3.5418c0.0200315,-0.926741 0.403654,-1.76391 1.01443,-2.3743 0.610394,-0.610394 1.44756,-0.994016 2.3743,-1.01443l0 0.125102c-0.892347,0.0200315 -1.69814,0.389669 -2.28586,0.977764 -0.587717,0.587717 -0.957733,1.39389 -0.977764,2.28586l-0.125102 0zm3.5418 -2.99301c0.817512,0.0200315 1.55565,0.359433 2.09462,0.898394 0.538961,0.538961 0.878363,1.2771 0.898394,2.09462l-0.125102 0c-0.0200315,-0.782741 -0.345449,-1.48989 -0.861733,-2.00617 -0.516284,-0.516284 -1.22343,-0.841701 -2.00617,-0.861733l0 -0.125102zm2.99301 3.14608c-0.0200315,0.817512 -0.359433,1.55565 -0.898394,2.09462 -0.538961,0.538961 -1.2771,0.878363 -2.09462,0.898394l0 -0.125102c0.782741,-0.0200315 1.48989,-0.345449 2.00617,-0.861733 0.516284,-0.516284 0.841701,-1.22343 0.861733,-2.00617l0.125102 0zm-3.14608 2.99301c-0.817512,-0.0200315 -1.55565,-0.359433 -2.09462,-0.898394 -0.538961,-0.538961 -0.878363,-1.2771 -0.898394,-2.09462l0.125102 0c0.0200315,0.782741 0.345449,1.48989 0.861733,2.00617 0.516284,0.516284 1.22343,0.841701 2.00617,0.861733l0 0.125102zm-2.99301 -3.14608c0.0200315,-0.817512 0.359433,-1.55565 0.898394,-2.09462 0.538961,-0.538961 1.2771,-0.878363 2.09462,-0.898394l0 0.125102c-0.782741,0.0200315 -1.48989,0.345449 -2.00617,0.861733 -0.516284,0.516284 -0.841701,1.22343 -0.861733,2.00617l-0.125102 0zm3.14608 -2.53871c0.692032,0.0200315 1.31679,0.30841 1.77336,0.764977 0.456567,0.456567 0.745323,1.08132 0.764977,1.77336l-0.125102 0c-0.0196536,-0.657638 -0.294425,-1.25102 -0.728693,-1.68491 -0.43389,-0.43389 -1.02765,-0.708662 -1.68491,-0.728693l0 -0.125102 0.000377953 0.000377953zm2.53871 2.69178c-0.0200315,0.692032 -0.30841,1.31679 -0.764977,1.77336 -0.456567,0.456567 -1.08132,0.745323 -1.77336,0.764977l0 -0.125102c0.65726,-0.0196536 1.25102,-0.294425 1.68491,-0.728693 0.43389,-0.43389 0.708662,-1.02765 0.728693,-1.68491l0.125102 0 -0.000377953 0.000377953zm-2.69178 2.53871c-0.692032,-0.0200315 -1.31679,-0.30841 -1.77373,-0.764977 -0.456567,-0.456567 -0.745323,-1.08132 -0.764977,-1.77336l0.125102 0c0.0196536,0.65726 0.294425,1.25102 0.728693,1.68491 0.43389,0.43389 1.02765,0.708662 1.68529,0.728693l0 0.125102 -0.000377953 -0.000377953zm-2.53871 -2.69178c0.0200315,-0.692032 0.30841,-1.31679 0.764977,-1.77336 0.456567,-0.456567 1.08132,-0.745323 1.77373,-0.764977l0 0.125102c-0.657638,0.0196536 -1.25102,0.294425 -1.68529,0.728693 -0.43389,0.43389 -0.708662,1.02765 -0.728693,1.68491l-0.125102 0 0.000377953 -0.000377953zm2.69178 -2.09235c0.568819,0.0196536 1.08208,0.25852 1.45814,0.634205 0.376063,0.375685 0.614551,0.889323 0.634205,1.45814l-0.125102 0c-0.0196536,-0.534425 -0.244158,-1.01632 -0.597544,-1.3697 -0.353386,-0.353386 -0.835276,-0.57789 -1.3697,-0.597544l0 -0.125102zm2.09235 2.24542c-0.0196536,0.568819 -0.25852,1.08208 -0.634205,1.45814 -0.375685,0.376063 -0.889323,0.614551 -1.45814,0.634205l0 -0.125102c0.534425,-0.0196536 1.01632,-0.244158 1.3697,-0.597544 0.353386,-0.353386 0.57789,-0.835276 0.597544,-1.3697l0.125102 0zm-2.24542 2.09235c-0.568819,-0.0196536 -1.08246,-0.25852 -1.45814,-0.634205 -0.376063,-0.376063 -0.614551,-0.889323 -0.634205,-1.45814l0.125102 0c0.0196536,0.534425 0.244158,1.01632 0.597544,1.3697 0.353386,0.353386 0.835276,0.57789 1.3697,0.597544l0 0.125102zm-2.09235 -2.24542c0.0196536,-0.568819 0.25852,-1.08246 0.634205,-1.45814 0.376063,-0.376063 0.889323,-0.614551 1.45814,-0.634205l0 0.125102c-0.534425,0.0196536 -1.01632,0.244158 -1.3697,0.597544 -0.353386,0.353386 -0.57789,0.835276 -0.597544,1.3697l-0.125102 0zm2.24542 -1.64825c0.446362,0.0192756 0.848882,0.208252 1.14444,0.504189 0.295559,0.295559 0.484536,0.698079 0.504189,1.14444l-0.125102 0c-0.0192756,-0.411969 -0.194268,-0.783118 -0.46715,-1.056 -0.272882,-0.272882 -0.644032,-0.447874 -1.056,-0.46715l0 -0.125102 -0.000377953 -0.000377953zm1.64825 1.80132c-0.0192756,0.446362 -0.208252,0.848882 -0.504189,1.14444l-0.000377953 0c-0.295559,0.295559 -0.698079,0.484536 -1.14406,0.504189l0 -0.125102c0.411969,-0.0192756 0.783118,-0.194268 1.056,-0.46715l0 0c0.272882,-0.272882 0.447874,-0.644032 0.46715,-1.056l0.125102 0 0.000377953 -0.000377953zm-1.80132 1.64825c-0.445984,-0.0192756 -0.848504,-0.208252 -1.14406,-0.504189l-0.000377953 -0.000377953c-0.295559,-0.295559 -0.484536,-0.698079 -0.504189,-1.14406l0.125102 0c0.0192756,0.411969 0.194268,0.783118 0.46715,1.056 0.272882,0.272882 0.64441,0.447874 1.05638,0.46715l0 0.125102 0 0.000377953zm-1.64825 -1.80132c0.0196536,-0.446362 0.208252,-0.848504 0.504189,-1.14406l0 -0.000377953c0.295559,-0.295559 0.698079,-0.484536 1.14444,-0.504189l0 0.125102c-0.411969,0.0192756 -0.783118,0.194268 -1.056,0.46715l0 0c-0.272882,0.272882 -0.447874,0.64441 -0.46715,1.05638l-0.125102 0 -0.000377953 0zm1.80132 -1.20227c0.32315,0.0188976 0.613796,0.157984 0.828851,0.37304l0 0 0 0c0.215055,0.215055 0.353764,0.506079 0.37304,0.829229l-0.125102 0c-0.0188976,-0.288756 -0.143622,-0.548788 -0.336,-0.740788l-0.000377953 -0.000377953c-0.192,-0.192 -0.452032,-0.317103 -0.740788,-0.336l0 -0.125102 0.000377953 0zm1.20227 1.35534c-0.0188976,0.32315 -0.157984,0.614174 -0.37304,0.829229l-0.000377953 0.000377953c-0.214677,0.214677 -0.506079,0.353764 -0.828851,0.37304l0 -0.125102c0.288756,-0.0188976 0.548788,-0.144 0.740788,-0.336 0.192,-0.192378 0.317103,-0.45241 0.336,-0.741166l0.125102 0 0.000377953 -0.000377953zm-1.35534 1.20227c-0.32315,-0.0188976 -0.614174,-0.157984 -0.829229,-0.37304l-0.000377953 -0.000377953c-0.214677,-0.214677 -0.353764,-0.506079 -0.37304,-0.829229l0.125102 0c0.0188976,0.288756 0.144,0.548788 0.336,0.741166 0.192378,0.192378 0.45241,0.317103 0.741166,0.336l0 0.125102 0.000377953 0.000377953zm-1.20227 -1.35534c0.0188976,-0.323528 0.157984,-0.614551 0.37304,-0.829229 0.215055,-0.215055 0.506079,-0.353764 0.829229,-0.37304l0 0.125102c-0.288756,0.0188976 -0.54841,0.143622 -0.740788,0.336 -0.192378,0.192378 -0.317103,0.452032 -0.336,0.740788l-0.125102 0 -0.000377953 0.000377953zm1.35534 -0.739654c0.19578,0.0181417 0.371906,0.105071 0.503055,0.236599 0.131528,0.131528 0.218457,0.307276 0.236599,0.503433l-0.12548 0c-0.0177638,-0.161386 -0.0907087,-0.306142 -0.199181,-0.414992 -0.10885,-0.10885 -0.253606,-0.181795 -0.414614,-0.199181l0 -0.12548 -0.000377953 -0.000377953zm0.739654 0.892725c-0.0181417,0.19578 -0.105071,0.371528 -0.236599,0.503055l0 0.000377953c-0.131528,0.131528 -0.307276,0.218457 -0.503055,0.236599l0 -0.12548c0.161386,-0.0177638 0.306142,-0.0907087 0.414614,-0.199181l0 0c0.10885,-0.10885 0.181417,-0.253606 0.199181,-0.414992l0.12548 0 0.000377953 -0.000377953zm-0.892725 0.740032c-0.19578,-0.0181417 -0.371528,-0.105071 -0.503055,-0.236599l-0.000377953 -0.000377953c-0.131528,-0.131528 -0.218457,-0.307276 -0.236599,-0.503055l0.12548 0c0.0177638,0.161386 0.0903308,0.306142 0.199181,0.414992 0.10885,0.10885 0.253606,0.181417 0.414992,0.199181l0 0.12548 0.000377953 0.000377953zm-0.739654 -0.893103c0.0181417,-0.19578 0.105071,-0.371906 0.236599,-0.503433l0.000377953 0c0.131528,-0.131528 0.307276,-0.218457 0.503055,-0.236599l0 0.12548c-0.161386,0.0177638 -0.306142,0.0903308 -0.414992,0.199181l0 0c-0.10885,0.10885 -0.181795,0.253606 -0.199181,0.414992l-0.12548 0 -0.000377953 0.000377953z"/></g></svg>