<?xml version="1.0" ?><svg style="enable-background:new 0 0 64 64;" version="1.1" viewBox="0 0 64 64" xml:space="preserve" xmlns="http://www.w3.org/2000/svg" xmlns:xlink="http://www.w3.org/1999/xlink"><g id="rice_cooker"/><g id="kettle"/><g id="cutting_board"/><g id="mug"/><g id="scale"/><g id="rolling_pin"/><g id="spatula"/><g id="ricebowl"/><g id="bowl"/><g id="knife"/><g id="oven"><g><g><path d="M8.1431,55.415c0,0.5808,0.3457,1.0579,0.764,1.0579h3.4985     h3.3568c0.4183,0,0.7605-0.4771,0.7605-1.0579v-3.3327H8.1431V55.415z" style="fill-rule:evenodd;clip-rule:evenodd;fill:#E0E0E0;"/></g><g><path d="M47.4771,52.0824v3.3327     c0,0.5808,0.3422,1.0579,0.7605,1.0579h3.502h3.3533c0.4218,0,0.764-0.4771,0.764-1.0579v-3.3327H47.4771z" style="fill-rule:evenodd;clip-rule:evenodd;fill:#E0E0E0;"/></g><g><path d="M2,13.6704v32.2652c0,3.3811,2.7656,6.1467,6.1431,6.1467     h8.3798h30.9541h8.3798c3.3775,0,6.1431-2.7657,6.1431-6.1467V13.6704c0-3.3776-2.7656-6.1433-6.1431-6.1433H8.1431     C4.7656,7.5271,2,10.2928,2,13.6704L2,13.6704z M51.705,27.5334c0-1.3102,1.0302-2.375,2.3024-2.375     c1.2722,0,2.3058,1.0648,2.3058,2.375c0,1.3137-1.0336,2.375-2.3058,2.375C52.7352,29.9084,51.705,28.8471,51.705,27.5334     L51.705,27.5334z M51.705,19.0289c0-1.3102,1.0302-2.375,2.3024-2.375c1.2722,0,2.3058,1.0648,2.3058,2.375     c0,1.3137-1.0336,2.375-2.3058,2.375C52.7352,21.404,51.705,20.3426,51.705,19.0289L51.705,19.0289z" style="fill-rule:evenodd;clip-rule:evenodd;fill:#6B7B8F;"/></g><g><path d="M6.9435,15.4197v27.8851     c0,1.6871,1.3794,3.0665,3.0698,3.0665h33.6264c1.6905,0,3.0698-1.3794,3.0698-3.0665V15.4197     c0-1.6905-1.3793-3.0699-3.0698-3.0699H10.0134C8.3229,12.3498,6.9435,13.7292,6.9435,15.4197L6.9435,15.4197z" style="fill-rule:evenodd;clip-rule:evenodd;fill:#CCE7FF;"/></g><g><path d="M39.2183,22.9527c0,12.9365-9.4238,23.4185-21.0498,23.4185     h25.4713c1.6905,0,3.0698-1.3794,3.0698-3.0665V15.4197c0-1.6905-1.3793-3.0699-3.0698-3.0699h-6.6997     C38.3955,15.5338,39.2183,19.1361,39.2183,22.9527L39.2183,22.9527z" style="fill-rule:evenodd;clip-rule:evenodd;fill:#96CBF8;"/></g><g><path d="M51.705,19.0289c0,1.3137,1.0302,2.375,2.3024,2.375     c1.2722,0,2.3058-1.0613,2.3058-2.375c0-1.3102-1.0336-2.375-2.3058-2.375C52.7352,16.6539,51.705,17.7187,51.705,19.0289     L51.705,19.0289z" style="fill-rule:evenodd;clip-rule:evenodd;fill:#E0E0E0;"/></g><g><path d="M51.705,27.5334c0,1.3137,1.0302,2.375,2.3024,2.375     c1.2722,0,2.3058-1.0613,2.3058-2.375c0-1.3102-1.0336-2.375-2.3058-2.375C52.7352,25.1584,51.705,26.2232,51.705,27.5334     L51.705,27.5334z" style="fill-rule:evenodd;clip-rule:evenodd;fill:#E0E0E0;"/></g><g><path d="M52.8562,16.9719c0.6879,0.4114,1.1512,1.1789,1.1512,2.057     c0,0.8816-0.4632,1.649-1.1512,2.0604c0.3388,0.2005,0.7329,0.3146,1.1512,0.3146c1.2722,0,2.3058-1.0613,2.3058-2.375     c0-1.3102-1.0336-2.375-2.3058-2.375C53.5891,16.6539,53.195,16.7714,52.8562,16.9719L52.8562,16.9719z" style="fill-rule:evenodd;clip-rule:evenodd;fill:#C9C7C7;"/></g><g><path d="M54.0074,27.5334c0,0.8816-0.4632,1.649-1.1512,2.0604     c0.3388,0.2005,0.7329,0.3146,1.1512,0.3146c1.2722,0,2.3058-1.0613,2.3058-2.375c0-1.3102-1.0336-2.375-2.3058-2.375     c-0.4183,0-0.8124,0.1175-1.1512,0.3181C53.5441,25.8878,54.0074,26.6553,54.0074,27.5334L54.0074,27.5334z" style="fill-rule:evenodd;clip-rule:evenodd;fill:#C9C7C7;"/></g><g><path d="M13.1351,52.0824v3.3327     c0,0.5808-0.3422,1.0579-0.764,1.0579h0.0346h3.3568c0.4183,0,0.7605-0.4771,0.7605-1.0579v-3.3327H13.1351z" style="fill-rule:evenodd;clip-rule:evenodd;fill:#C9C7C7;"/></g><g><path d="M52.469,55.415c0,0.5808-0.3457,1.0579-0.764,1.0579h0.0346     h3.3533c0.4218,0,0.764-0.4771,0.764-1.0579v-3.3327H52.469V55.415z" style="fill-rule:evenodd;clip-rule:evenodd;fill:#C9C7C7;"/></g><g><path d="M55.8564,6.5273H8.1436C4.2051,6.5273,1,9.7319,1,13.6704v32.2651c0,3.6005,2.678,6.5793,6.1436,7.0685v2.4109     c0,1.1538,0.7744,2.0576,1.7637,2.0576h6.8555c0.9863,0,1.7598-0.9038,1.7598-2.0576v-2.3325h28.9551v2.3325     c0,1.1538,0.7734,2.0576,1.7598,2.0576h6.8555c0.9893,0,1.7637-0.9038,1.7637-2.0576v-2.4109     C60.322,52.5149,63,49.536,63,45.9355V13.6704C63,9.7319,59.7949,6.5273,55.8564,6.5273z M15.5225,55.415     c0,0.021-0.001,0.04-0.0039,0.0576H9.1475c-0.0029-0.0171-0.0039-0.0366-0.0039-0.0576v-2.3325h6.3789V55.415z M54.8564,55.415     c0,0.021-0.001,0.04-0.0039,0.0576h-6.3711c-0.0029-0.0176-0.0039-0.0366-0.0039-0.0576v-2.3325h6.3789V55.415z M61,45.9355     c0,2.8379-2.3076,5.147-5.1436,5.147H8.1436C5.3076,51.0825,3,48.7734,3,45.9355V13.6704c0-2.8359,2.3076-5.1431,5.1436-5.1431     h47.7129c2.8359,0,5.1436,2.3071,5.1436,5.1431V45.9355z"/><path d="M55.8643,34.585h-4.0137c-0.5527,0-1,0.4478-1,1s0.4473,1,1,1h4.0137c0.5527,0,1-0.4478,1-1     S56.417,34.585,55.8643,34.585z"/><path d="M55.8643,39.8018h-4.0176c-0.5527,0-1,0.4478-1,1s0.4473,1,1,1h4.0176c0.5527,0,1-0.4478,1-1     S56.417,39.8018,55.8643,39.8018z"/><path d="M43.6396,11.3496h-33.626c-2.2441,0-4.0703,1.8262-4.0703,4.0703v27.8848c0,2.2422,1.8262,4.0664,4.0703,4.0664h33.626     c2.2441,0,4.0703-1.8242,4.0703-4.0664V15.4199C47.71,13.1758,45.8838,11.3496,43.6396,11.3496z M45.71,43.3047     c0,1.1396-0.9287,2.0664-2.0703,2.0664h-33.626c-1.1416,0-2.0703-0.9268-2.0703-2.0664V15.4199     c0-1.1416,0.9287-2.0703,2.0703-2.0703h33.626c1.1416,0,2.0703,0.9287,2.0703,2.0703V43.3047z"/><path d="M30.5186,20.1509l-7.5088,7.7373c-0.3848,0.396-0.375,1.0293,0.0215,1.4141c0.1943,0.1885,0.4453,0.2822,0.6963,0.2822     c0.2607,0,0.5215-0.1016,0.7178-0.3037l7.5088-7.7373c0.3848-0.396,0.375-1.0293-0.0215-1.4141     C31.5361,19.7451,30.9043,19.7534,30.5186,20.1509z"/><path d="M28.8174,30.1733l-7.5156,7.7471c-0.3848,0.3965-0.375,1.0293,0.0215,1.4141c0.1943,0.1885,0.4453,0.2822,0.6963,0.2822     c0.2607,0,0.5215-0.1016,0.7178-0.3037l7.5156-7.7471c0.3848-0.3965,0.375-1.0293-0.0215-1.4141     C29.8359,29.7676,29.2031,29.7773,28.8174,30.1733z"/><path d="M54.0078,15.6538c-1.8213,0-3.3027,1.5142-3.3027,3.375s1.4814,3.375,3.3027,3.375c1.8223,0,3.3057-1.5142,3.3057-3.375     S55.8301,15.6538,54.0078,15.6538z M54.0078,20.4038c-0.7188,0-1.3027-0.6167-1.3027-1.375s0.584-1.375,1.3027-1.375     c0.7197,0,1.3057,0.6167,1.3057,1.375S54.7275,20.4038,54.0078,20.4038z"/><path d="M54.0078,24.1582c-1.8213,0-3.3027,1.5142-3.3027,3.375c0,1.8613,1.4814,3.3755,3.3027,3.3755     c1.8223,0,3.3057-1.5142,3.3057-3.3755C57.3135,25.6724,55.8301,24.1582,54.0078,24.1582z M54.0078,28.9087     c-0.7188,0-1.3027-0.6172-1.3027-1.3755s0.584-1.375,1.3027-1.375c0.7197,0,1.3057,0.6167,1.3057,1.375     S54.7275,28.9087,54.0078,28.9087z"/></g></g></g><g id="frying_pan"/><g id="buthcer_knife"/><g id="soup_spoon"/><g id="mixer"/></svg>