<?xml version="1.0" ?><svg style="enable-background:new 0 0 64 64;" version="1.1" viewBox="0 0 64 64" xml:space="preserve" xmlns="http://www.w3.org/2000/svg" xmlns:xlink="http://www.w3.org/1999/xlink"><g id="rice_cooker"><g><g><path d="M26.0975,7.9722C17.293,9.0439,7.7454,12.805,7.7454,19.3489     h24.2564h24.2529c0-6.5439-9.5477-10.305-18.3521-11.3766c0.0035,0.0346,0.0069,0.0657,0.0069,0.1002     c0.1348,2.0638-0.1763,3.0317-1.6247,3.0317h-4.283h-4.2864c-1.4484,0-1.7595-0.9679-1.6247-3.0317     C26.0906,8.0379,26.0941,8.0068,26.0975,7.9722L26.0975,7.9722z" style="fill-rule:evenodd;clip-rule:evenodd;fill:#FFC955;"/></g><g><path d="M7.7454,19.3489v31.7827     c0,3.4361,2.8138,6.2466,6.2499,6.2466c14.5704,0,21.4391,0,36.0095,0c3.4361,0,6.2499-2.8105,6.2499-6.2466V33.2214V19.3489     H7.7454z" style="fill-rule:evenodd;clip-rule:evenodd;fill:#E0E0E0;"/></g><g><path d="M37.9025,7.9722c-0.598-7.9612-11.2069-7.9612-11.805,0     l-0.0069,0.1002c-0.1348,2.0638,0.1763,3.0317,1.6247,3.0317h4.2864h4.283c1.4484,0,1.7595-0.9679,1.6247-3.0317L37.9025,7.9722z     " style="fill-rule:evenodd;clip-rule:evenodd;fill:#6B7B8F;"/></g><g><path d="M32.0017,40.2077c1.3067,0,2.3644,1.0924,2.3644,2.4371     c0,1.3482-1.0578,2.4406-2.3644,2.4406c-1.3101,0-2.3679-1.0924-2.3679-2.4406C29.6338,41.3001,30.6916,40.2077,32.0017,40.2077     L32.0017,40.2077z M32.0017,34.1409c-5.1679,0-9.3956,4.2278-9.3956,9.3958v13.8414h1.2583h16.2712h1.2583V43.5367     C41.3939,38.3687,37.1662,34.1409,32.0017,34.1409L32.0017,34.1409z M32.0017,48.9399c1.3067,0,2.3644,1.0924,2.3644,2.4406     c0,1.3447-1.0578,2.4371-2.3644,2.4371c-1.3101,0-2.3679-1.0924-2.3679-2.4371C29.6338,50.0322,30.6916,48.9399,32.0017,48.9399     L32.0017,48.9399z" style="fill-rule:evenodd;clip-rule:evenodd;fill:#FFC955;"/></g><g><path d="M13.9953,59.6908c0,1.2652,1.0336,2.3023,2.2988,2.3092     h0.0104h5.2509h0.0104c1.2652-0.0069,2.2988-1.044,2.2988-2.3092v-2.3127h-1.2583h-8.6109V59.6908z" style="fill-rule:evenodd;clip-rule:evenodd;fill:#6B7B8F;"/></g><g><path d="M40.1356,59.6908c0,1.2652,1.0336,2.3023,2.2988,2.3092     h0.0104h5.2509h0.0104c1.2652-0.0069,2.2988-1.044,2.2988-2.3092v-2.3127h-8.6109h-1.2583V59.6908z" style="fill-rule:evenodd;clip-rule:evenodd;fill:#6B7B8F;"/></g><g><path d="M56.2546,19.3489v13.8725h2.2296     c1.2306,0,2.2331-1.006,2.2331-2.2332V21.582c0-1.2307-1.0025-2.2332-2.2331-2.2332H56.2546z" style="fill-rule:evenodd;clip-rule:evenodd;fill:#6B7B8F;"/></g><g><path d="M29.6338,42.6449c0,1.3482,1.0578,2.4406,2.3679,2.4406     c1.3067,0,2.3644-1.0924,2.3644-2.4406c0-1.3447-1.0578-2.4371-2.3644-2.4371C30.6916,40.2077,29.6338,41.3001,29.6338,42.6449     L29.6338,42.6449z" style="fill-rule:evenodd;clip-rule:evenodd;fill:#FA3C5F;"/></g><g><path d="M29.6338,51.3804c0,1.3447,1.0578,2.4371,2.3679,2.4371     c1.3067,0,2.3644-1.0924,2.3644-2.4371c0-1.3482-1.0578-2.4406-2.3644-2.4406C30.6916,48.9399,29.6338,50.0322,29.6338,51.3804     L29.6338,51.3804z" style="fill-rule:evenodd;clip-rule:evenodd;fill:#FA3C5F;"/></g><g><path d="M30.2353,34.3103c4.3314,0.8297,7.6292,4.6634,7.6292,9.2265     v13.8414h2.2711h1.2583V43.5367c0-5.1681-4.2277-9.3958-9.3921-9.3958C31.3968,34.1409,30.8057,34.1997,30.2353,34.3103     L30.2353,34.3103z" style="fill-rule:evenodd;clip-rule:evenodd;fill:#F2AF1F;"/></g><g><path d="M37.9059,9.5175     c6.0459,1.8633,10.9788,5.1266,10.9788,9.8314h7.3699c0-6.5439-9.5477-10.305-18.3521-11.3766     c0.0035,0.0346,0.0069,0.0657,0.0069,0.1002C37.9474,8.6325,37.9509,9.113,37.9059,9.5175L37.9059,9.5175z" style="fill-rule:evenodd;clip-rule:evenodd;fill:#F2AF1F;"/></g><g><path d="M48.8847,19.3489v31.7827     c0,3.4361-2.8104,6.2466-6.2464,6.2466h7.3664c3.4361,0,6.2499-2.8105,6.2499-6.2466V33.2214V19.3489H48.8847z" style="fill-rule:evenodd;clip-rule:evenodd;fill:#C9C7C7;"/></g><g><path d="M29.8585,2.4032c1.9704,0.7778,3.5743,2.6653,3.7679,5.6693     c0.1314,2.0638-0.1763,3.0317-1.6247,3.0317h4.283c1.0543,0,1.5037-0.5116,1.6212-1.5867     c0.0449-0.4045,0.0415-0.885,0.0035-1.445l-0.0069-0.1002C37.5257,2.9563,33.177,1.0999,29.8585,2.4032L29.8585,2.4032z" style="fill-rule:evenodd;clip-rule:evenodd;fill:#586D87;"/></g><g><path d="M7.7454,19.3489v13.8725H5.5157     c-1.2306,0-2.2331-1.006-2.2331-2.2332V21.582c0-1.2307,1.0025-2.2332,2.2331-2.2332H7.7454z" style="fill-rule:evenodd;clip-rule:evenodd;fill:#6B7B8F;"/></g><g><path d="M32.002,39.208c-1.8574,0-3.3682,1.542-3.3682,3.4365c0,1.8975,1.5107,3.4404,3.3682,3.4404     c1.855,0,3.3643-1.543,3.3643-3.4404C35.3662,40.75,33.8569,39.208,32.002,39.208z M32.002,44.085     c-0.7544,0-1.3682-0.6465-1.3682-1.4404c0-0.792,0.6138-1.4365,1.3682-1.4365c0.7524,0,1.3643,0.6445,1.3643,1.4365     C33.3662,43.4385,32.7544,44.085,32.002,44.085z"/><path d="M32.002,47.9395c-1.8574,0-3.3682,1.5439-3.3682,3.4414c0,1.8945,1.5107,3.4365,3.3682,3.4365     c1.855,0,3.3643-1.542,3.3643-3.4365C35.3662,49.4834,33.8569,47.9395,32.002,47.9395z M32.002,52.8174     c-0.7544,0-1.3682-0.6445-1.3682-1.4365c0-0.7949,0.6138-1.4414,1.3682-1.4414c0.7524,0,1.3643,0.6465,1.3643,1.4414     C33.3662,52.1729,32.7544,52.8174,32.002,52.8174z"/><path d="M58.4844,18.3486h-1.3022c-0.861-6.546-10.1056-10.1166-18.3801-11.267C38.1333,2.9125,34.9033,1.0005,32,1.0005     c-2.9036,0-6.134,1.9123-6.8023,6.0811c-8.2745,1.1506-17.519,4.7211-18.3799,11.267H5.5156     c-1.7827,0-3.2329,1.4507-3.2329,3.2334v9.4063c0,1.7827,1.4502,3.2334,3.2329,3.2334h1.23v16.9102     c0,3.6552,2.7248,6.6793,6.2495,7.1688v1.3898c0,1.8252,1.4844,3.3096,3.3091,3.3096h5.251c1.8247,0,3.3091-1.4844,3.3091-3.3096     v-1.3125h14.2715v1.3125c0,1.8252,1.4844,3.3096,3.3091,3.3096h5.251c1.8247,0,3.3091-1.4844,3.3091-3.3096v-1.3898     c3.5247-0.4895,6.2495-3.5136,6.2495-7.1688V34.2217h1.23c1.7827,0,3.2329-1.4507,3.2329-3.2334V21.582     C61.7173,19.7993,60.2671,18.3486,58.4844,18.3486z M32,3.0005c2.2808,0,4.6841,1.5879,4.9111,5.1372     c0.0933,1.4219-0.0894,1.7817-0.1724,1.8701c-0.0566,0.0601-0.2261,0.0962-0.4541,0.0962h-8.5693     c-0.228,0-0.3975-0.0361-0.4541-0.0962c-0.083-0.0884-0.2656-0.4482-0.1724-1.8716C27.3159,4.5884,29.7192,3.0005,32,3.0005z      M25.0679,9.1249c0.0267,0.8691,0.1967,1.6768,0.7339,2.2501c0.4531,0.4839,1.0967,0.729,1.9136,0.729h8.5693     c0.8169,0,1.4604-0.2451,1.9136-0.729c0.5374-0.5734,0.7073-1.3814,0.7339-2.2501c7.7843,1.1507,15.3188,4.3369,16.23,9.2238     H8.8379C9.7491,13.4618,17.2836,10.2756,25.0679,9.1249z M5.5156,32.2217c-0.6797,0-1.2329-0.5532-1.2329-1.2334V21.582     c0-0.6802,0.5532-1.2334,1.2329-1.2334h1.23v11.873H5.5156z M22.8643,59.6904c0,0.7217-0.5874,1.3096-1.3091,1.3096h-5.251     c-0.7217,0-1.3091-0.5879-1.3091-1.3096v-1.3125h7.8691V59.6904z M40.394,56.3779H23.606V43.5371     c0-4.6299,3.7666-8.3965,8.396-8.3965c4.6274,0,8.3921,3.7666,8.3921,8.3965V56.3779z M49.0049,59.6904     c0,0.7217-0.5874,1.3096-1.3091,1.3096h-5.251c-0.7217,0-1.3091-0.5879-1.3091-1.3096v-1.3125h7.8691V59.6904z M55.2544,51.1318     c0,2.8926-2.355,5.2461-5.2495,5.2461H42.394V43.5371c0-5.7324-4.6621-10.3965-10.3921-10.3965     c-5.7324,0-10.396,4.6641-10.396,10.3965v12.8408h-7.6108c-2.8945,0-5.2495-2.3535-5.2495-5.2461V33.2217v-12.873h46.5088v12.873     V51.1318z M59.7173,30.9883c0,0.6802-0.5532,1.2334-1.2329,1.2334h-1.23v-11.873h1.23c0.6797,0,1.2329,0.5532,1.2329,1.2334     V30.9883z"/></g></g></g><g id="kettle"/><g id="cutting_board"/><g id="mug"/><g id="scale"/><g id="rolling_pin"/><g id="spatula"/><g id="ricebowl"/><g id="bowl"/><g id="knife"/><g id="oven"/><g id="frying_pan"/><g id="buthcer_knife"/><g id="soup_spoon"/><g id="mixer"/></svg>